<svg width="113" height="112" viewBox="0 0 113 112" fill="none" xmlns="http://www.w3.org/2000/svg">
<path d="M49.6829 14.1294C49.9345 16.0919 51.1422 16.3994 51.1422 16.3994C53.1159 16.5336 52.4226 14.7724 52.4226 14.7724C50.3986 10.7187 45.4614 12.0662 45.4614 12.0662C45.4614 12.0662 49.4089 12.1668 49.6829 14.1294ZM78.2825 21.7C81.1117 17.8252 76.0907 14.8618 76.0907 14.8618C76.4213 16.3704 76.4213 17.9326 76.0907 19.4411C75.8223 23.1146 78.2825 21.7 78.2825 21.7Z" fill="black"/>
<path d="M103.919 25.2673C103.919 25.2673 98.3274 11.1212 78.3217 5.4181C58.316 -0.285051 43.1858 11.5685 43.1858 11.5685C62.3529 5.4181 65.9928 10.3776 65.9928 10.3776C65.9928 10.3776 69.2694 14.107 72.2831 13.6541C75.2968 13.2012 73.2895 10.2993 73.2895 10.2993C80.5191 11.7419 81.7045 15.9745 83.4825 19.5697C85.2605 23.1649 87.3964 21.3254 89.4317 19.3013C91.4669 17.2773 93.6084 19.7039 93.6084 19.7039C95.4275 22.2231 96.5949 25.1533 97.0066 28.2333C97.4183 31.3132 97.0615 34.4472 95.9679 37.3557C92.2609 47.599 98.6629 48.2029 98.6629 48.2029C111.663 45.8825 103.919 25.2673 103.919 25.2673ZM86.4683 16.8803C85.3947 17.2214 84.8524 15.298 84.8524 15.298C84.7273 15.0438 84.6998 14.7526 84.775 14.4796C84.8502 14.2065 85.023 13.9705 85.2605 13.8163C86.4906 13.2571 86.9379 14.8451 86.9379 14.8451C86.9379 14.8451 87.5418 16.5616 86.4627 16.8971L86.4683 16.8803ZM102.801 32.4298C102.939 32.4309 103.075 32.4654 103.198 32.5303C103.32 32.5953 103.425 32.6888 103.503 32.803C103.582 32.9171 103.631 33.0485 103.648 33.186C103.665 33.3235 103.649 33.463 103.6 33.5928C103.309 34.711 102.118 33.822 102.118 33.822C102.034 33.6909 101.985 33.5402 101.976 33.3845C101.967 33.2289 101.998 33.0735 102.067 32.9335C102.135 32.7935 102.239 32.6736 102.368 32.5853C102.496 32.4971 102.645 32.4435 102.801 32.4298ZM101.285 44.4287C101.285 44.4287 100.782 44.0262 101.285 42.7513C101.701 41.4544 102.006 40.1245 102.197 38.7759C102.834 36.5841 104.215 38.1385 104.215 38.1385C104.215 38.1385 105.194 39.6873 103.712 42.6842C102.23 45.6812 101.285 44.4343 101.285 44.4343V44.4287ZM42.0508 33.548C42.0627 33.548 42.0741 33.5433 42.0824 33.5349C42.0908 33.5265 42.0955 33.5152 42.0955 33.5033C42.0955 33.4914 42.0908 33.4801 42.0824 33.4717C42.0741 33.4633 42.0627 33.4586 42.0508 33.4586C42.0389 33.4586 42.0276 33.4633 42.0192 33.4717C42.0108 33.4801 42.0061 33.4914 42.0061 33.5033C42.0061 33.5152 42.0108 33.5265 42.0192 33.5349C42.0276 33.5433 42.0389 33.548 42.0508 33.548ZM47.0047 37.1824C46.9518 37.2314 46.8937 37.2745 46.8314 37.311C46.8242 37.3172 46.8193 37.3255 46.8171 37.3348C46.815 37.344 46.8159 37.3536 46.8196 37.3624C46.8234 37.3711 46.8298 37.3784 46.8379 37.3832C46.846 37.388 46.8555 37.3902 46.8649 37.3893C47.603 37.188 46.9153 36.6009 46.8649 36.2095C46.8649 36.1256 46.6748 36.2095 47.0774 36.8693C47.0974 36.9228 47.1012 36.9811 47.0883 37.0368C47.0753 37.0925 47.0463 37.1431 47.0047 37.1824ZM47.754 35.4547C47.7146 35.6503 47.7146 35.8517 47.754 36.0474C47.7607 36.0566 47.7695 36.0641 47.7797 36.0693C47.7899 36.0745 47.8012 36.0772 47.8127 36.0772C47.8241 36.0772 47.8354 36.0745 47.8456 36.0693C47.8558 36.0641 47.8646 36.0566 47.8714 36.0474C47.897 35.8619 47.897 35.6737 47.8714 35.4882C47.9105 35.3876 47.7651 35.3652 47.754 35.4547ZM45.4336 35.5162C45.3872 35.7327 45.4127 35.9585 45.5062 36.1592C45.517 36.1693 45.53 36.1767 45.5443 36.1806C45.5585 36.1845 45.5735 36.1848 45.5879 36.1815C45.6023 36.1781 45.6157 36.1713 45.6268 36.1616C45.6379 36.1518 45.6464 36.1395 45.6516 36.1256C45.6668 35.9197 45.6422 35.7128 45.5789 35.5162C45.5716 35.5034 45.561 35.4928 45.5482 35.4854C45.5355 35.478 45.521 35.4741 45.5062 35.4741C45.4915 35.4741 45.477 35.478 45.4643 35.4854C45.4515 35.4928 45.4409 35.5034 45.4336 35.5162ZM44.8073 35.0465C44.9303 34.9291 45.4671 34.5433 45.5789 34.437C45.6908 34.3308 45.4336 34.1798 44.7291 34.9682C44.6787 35.0185 44.757 35.1024 44.8073 35.0465ZM48.1789 34.8005C48.044 34.6153 47.8679 34.4641 47.6645 34.3588C47.5862 34.3252 47.5247 34.465 47.6086 34.4986C47.6925 34.5321 48.2404 35.108 48.1789 34.8005ZM45.0086 38.7032C45.0422 38.7424 45.0981 38.7032 45.0757 38.6529C44.9032 38.4283 44.8089 38.1534 44.8073 37.8701C45.4336 38.5579 46.1213 38.3901 45.8529 38.3174C45.4642 38.2317 45.1075 38.0378 44.8241 37.7583C44.6843 37.6241 44.6005 38.2224 45.0086 38.7032ZM41.5811 34.219C41.5604 34.219 41.5405 34.2272 41.5258 34.2419C41.5111 34.2566 41.5029 34.2765 41.5029 34.2973C41.5029 34.318 41.5111 34.3379 41.5258 34.3526C41.5405 34.3673 41.5604 34.3755 41.5811 34.3755C41.6019 34.3755 41.6218 34.3673 41.6365 34.3526C41.6512 34.3379 41.6594 34.318 41.6594 34.2973C41.6594 34.2765 41.6512 34.2566 41.6365 34.2419C41.6218 34.2272 41.6019 34.219 41.5811 34.219ZM42.2241 34.8061C42.2479 34.8061 42.2706 34.7966 42.2874 34.7799C42.3042 34.7631 42.3136 34.7403 42.3136 34.7166C42.3136 34.6929 42.3042 34.6701 42.2874 34.6534C42.2706 34.6366 42.2479 34.6272 42.2241 34.6272C42.2004 34.6272 42.1777 34.6366 42.1609 34.6534C42.1441 34.6701 42.1347 34.6929 42.1347 34.7166C42.1347 34.7403 42.1441 34.7631 42.1609 34.7799C42.1777 34.7966 42.2004 34.8061 42.2241 34.8061ZM42.3248 34.0568C42.3427 34.0521 42.3585 34.0416 42.3698 34.0269C42.3811 34.0123 42.3872 33.9943 42.3872 33.9758C42.3872 33.9573 42.3811 33.9393 42.3698 33.9246C42.3585 33.91 42.3427 33.8994 42.3248 33.8947C42.3069 33.8994 42.2911 33.91 42.2798 33.9246C42.2685 33.9393 42.2624 33.9573 42.2624 33.9758C42.2624 33.9943 42.2685 34.0123 42.2798 34.0269C42.2911 34.0416 42.3069 34.0521 42.3248 34.0568ZM43.2138 34.1798C43.233 34.1749 43.2501 34.1637 43.2623 34.148C43.2745 34.1323 43.2811 34.113 43.2811 34.0932C43.2811 34.0733 43.2745 34.054 43.2623 34.0383C43.2501 34.0226 43.233 34.0114 43.2138 34.0065C43.1946 34.0114 43.1775 34.0226 43.1653 34.0383C43.1531 34.054 43.1465 34.0733 43.1465 34.0932C43.1465 34.113 43.1531 34.1323 43.1653 34.148C43.1775 34.1637 43.1946 34.1749 43.2138 34.1798ZM43.4151 35.7007C43.5772 35.6448 43.3648 35.4603 43.32 35.6056C43.3033 35.6504 43.3592 35.7231 43.4151 35.7007ZM43.1467 35.0353C43.1601 35.0353 43.1729 35.03 43.1823 35.0206C43.1917 35.0111 43.197 34.9983 43.197 34.985C43.197 34.9717 43.1917 34.9589 43.1823 34.9494C43.1729 34.94 43.1601 34.9347 43.1467 34.9347C43.1334 34.9347 43.1206 34.94 43.1111 34.9494C43.1017 34.9589 43.0964 34.9717 43.0964 34.985C43.0964 34.9983 43.1017 35.0111 43.1111 35.0206C43.1206 35.03 43.1334 35.0353 43.1467 35.0353ZM41.5308 35.2254C41.516 35.2254 41.5018 35.2313 41.4913 35.2418C41.4808 35.2523 41.4749 35.2665 41.4749 35.2813C41.4749 35.2962 41.4808 35.3104 41.4913 35.3209C41.5018 35.3314 41.516 35.3373 41.5308 35.3373C41.5456 35.3373 41.5599 35.3314 41.5704 35.3209C41.5808 35.3104 41.5867 35.2962 41.5867 35.2813C41.5867 35.2665 41.5808 35.2523 41.5704 35.2418C41.5599 35.2313 41.5456 35.2254 41.5308 35.2254ZM42.1179 37.5011C42.1041 37.5052 42.0919 37.5137 42.0833 37.5253C42.0746 37.5369 42.07 37.5509 42.07 37.5654C42.07 37.5798 42.0746 37.5939 42.0833 37.6055C42.0919 37.6171 42.1041 37.6256 42.1179 37.6297C42.1318 37.6256 42.1439 37.6171 42.1525 37.6055C42.1612 37.5939 42.1658 37.5798 42.1658 37.5654C42.1658 37.5509 42.1612 37.5369 42.1525 37.5253C42.1439 37.5137 42.1318 37.5052 42.1179 37.5011ZM41.3966 35.9914C41.3729 35.9914 41.3501 36.0009 41.3334 36.0176C41.3166 36.0344 41.3072 36.0572 41.3072 36.0809C41.3072 36.1046 41.3166 36.1274 41.3334 36.1442C41.3501 36.1609 41.3729 36.1704 41.3966 36.1704C41.4204 36.1704 41.4431 36.1609 41.4599 36.1442C41.4767 36.1274 41.4861 36.1046 41.4861 36.0809C41.4861 36.0572 41.4767 36.0344 41.4599 36.0176C41.4431 36.0009 41.4204 35.9914 41.3966 35.9914ZM42.2241 35.2254C42.2125 35.2222 42.2003 35.2218 42.1885 35.2241C42.1767 35.2264 42.1655 35.2314 42.156 35.2387C42.1464 35.246 42.1386 35.2554 42.1333 35.2662C42.1279 35.277 42.1251 35.2889 42.1251 35.3009C42.1251 35.313 42.1279 35.3248 42.1333 35.3356C42.1386 35.3464 42.1464 35.3559 42.156 35.3632C42.1655 35.3705 42.1767 35.3755 42.1885 35.3778C42.2003 35.38 42.2125 35.3796 42.2241 35.3764C42.2407 35.3718 42.2553 35.362 42.2657 35.3484C42.2761 35.3347 42.2817 35.3181 42.2817 35.3009C42.2817 35.2838 42.2761 35.2671 42.2657 35.2535C42.2553 35.2398 42.2407 35.23 42.2241 35.2254ZM42.8448 34.7558C42.8641 34.7558 42.8825 34.7481 42.8962 34.7345C42.9098 34.7208 42.9175 34.7023 42.9175 34.6831C42.9175 34.6638 42.9098 34.6453 42.8962 34.6317C42.8825 34.618 42.8641 34.6104 42.8448 34.6104C42.8255 34.6104 42.807 34.618 42.7934 34.6317C42.7797 34.6453 42.7721 34.6638 42.7721 34.6831C42.7721 34.7023 42.7797 34.7208 42.7934 34.7345C42.807 34.7481 42.8255 34.7558 42.8448 34.7558ZM35.2462 53.386C35.2513 53.3602 35.2513 53.3336 35.2462 53.3078C35.1847 52.7486 34.2845 53.2295 34.687 53.688C34.7251 53.7259 34.7739 53.7513 34.8268 53.7607C34.8804 53.7725 34.9361 53.7714 34.9892 53.7575C35.0423 53.7435 35.0914 53.7172 35.1323 53.6806C35.1733 53.6441 35.205 53.5983 35.2248 53.5471C35.2445 53.4958 35.2519 53.4406 35.2462 53.386ZM35.8948 50.2437C35.9358 50.2844 35.9871 50.3132 36.0433 50.327C36.0994 50.3408 36.1582 50.3391 36.2135 50.322C36.2573 50.3068 36.2974 50.2826 36.3311 50.2509C36.3649 50.2192 36.3917 50.1807 36.4096 50.138C36.4275 50.0952 36.4363 50.0492 36.4352 50.0029C36.4342 49.9566 36.4234 49.911 36.4036 49.8691C36.3029 49.4497 35.5034 49.8355 35.8948 50.2437ZM37.1864 52.1783C37.2206 52.0863 37.2206 51.9851 37.1864 51.8932C36.4763 51.2725 36.5322 52.9891 37.1864 52.1783ZM31.8914 54.7C32.2436 54.9516 32.5791 54.6049 32.2716 54.2415C32.1542 54.1017 31.4664 54.3813 31.8914 54.7ZM35.0784 56.0251C34.3516 55.4995 34.2453 57.0763 35.0057 56.5843C35.0811 56.5145 35.1309 56.4215 35.1471 56.3202C35.1633 56.2188 35.1451 56.1149 35.0952 56.0251H35.0784ZM37.2479 47.4369C37.0801 47.7835 37.6337 48.0855 37.7623 47.5487C37.7623 47.4257 37.7623 47.2635 37.4771 47.2412C37.424 47.2478 37.3739 47.2699 37.3332 47.3047C37.2924 47.3394 37.2628 47.3854 37.2479 47.4369ZM36.8229 45.2898C36.8769 45.3195 36.9389 45.3314 37 45.3236C37.0611 45.3158 37.1181 45.2888 37.1629 45.2465C37.2077 45.2043 37.2379 45.1488 37.2491 45.0883C37.2604 45.0277 37.2521 44.9651 37.2255 44.9096C37.0578 44.5853 36.4483 44.9543 36.8229 45.2898ZM37.8797 42.9247C37.8797 43.2434 38.4724 43.1987 38.4388 42.8352C38.4384 42.7986 38.4291 42.7626 38.4115 42.7304C38.394 42.6982 38.3688 42.6709 38.3382 42.6507C38.2096 42.4941 37.7343 42.6116 37.8797 42.9247ZM40.3063 39.6649C40.625 39.4748 40.4181 39.0107 40.1106 39.1785C39.708 39.2176 39.9429 39.8774 40.3063 39.6649ZM38.1313 37.188C38.1338 37.1694 38.1338 37.1506 38.1313 37.1321C38.1399 37.0881 38.1374 37.0426 38.124 36.9999C38.1105 36.9571 38.0866 36.9184 38.0544 36.8872C38.0221 36.8561 37.9826 36.8335 37.9394 36.8216C37.8962 36.8097 37.8507 36.8088 37.807 36.819C37.7614 36.8309 37.7198 36.8549 37.6866 36.8884C37.6535 36.9219 37.63 36.9637 37.6185 37.0095C37.6071 37.0552 37.6082 37.1032 37.6217 37.1484C37.6351 37.1936 37.6605 37.2343 37.6952 37.2663C37.7166 37.312 37.7525 37.3495 37.7974 37.3727C37.8423 37.3959 37.8936 37.4037 37.9433 37.3948C37.9931 37.3858 38.0385 37.3607 38.0725 37.3233C38.1065 37.2859 38.1271 37.2383 38.1313 37.188ZM34.5864 34.6663C34.3236 34.3252 33.8987 34.7502 34.1615 35.0297C34.1852 35.0515 34.2115 35.0702 34.2397 35.0856C34.4243 35.2646 34.8268 34.9459 34.5864 34.6663ZM34.9331 31.2612C34.7989 31.3898 34.8156 31.742 35.0505 31.77C35.1048 31.7949 35.1658 31.8013 35.2242 31.7883C35.2825 31.7754 35.335 31.7436 35.3737 31.698C35.4123 31.6524 35.435 31.5954 35.4382 31.5357C35.4414 31.476 35.425 31.4169 35.3915 31.3674C35.3712 31.3275 35.3423 31.2925 35.307 31.2649C35.2717 31.2373 35.2307 31.2177 35.187 31.2076C35.1433 31.1975 35.098 31.197 35.0541 31.2063C35.0102 31.2155 34.9689 31.2343 34.9331 31.2612ZM35.8668 27.7498C35.8064 27.7201 35.7376 27.7123 35.6721 27.7276C35.6066 27.743 35.5485 27.7806 35.5076 27.834C35.4667 27.8874 35.4456 27.9534 35.4479 28.0206C35.4502 28.0878 35.4757 28.1522 35.5201 28.2027C35.5342 28.2593 35.5627 28.3112 35.6029 28.3533C35.6431 28.3955 35.6936 28.4264 35.7494 28.4432C35.7854 28.4478 35.822 28.4453 35.857 28.4357C35.8921 28.4261 35.9249 28.4097 35.9535 28.3873C35.9821 28.3649 36.006 28.3371 36.0237 28.3054C36.0415 28.2737 36.0528 28.2388 36.0569 28.2027C36.069 28.1476 36.0677 28.0904 36.0531 28.0359C36.0385 27.9815 36.0111 27.9313 35.973 27.8896C35.9565 27.8313 35.9186 27.7814 35.8668 27.7498ZM33.8428 29.7236C33.9769 29.293 33.2501 29.2483 33.2501 29.6509C33.2514 29.7242 33.2803 29.7943 33.3311 29.8472C33.3819 29.9001 33.4508 29.9318 33.524 29.936C33.5934 29.9419 33.6626 29.9241 33.7205 29.8855C33.7784 29.8469 33.8215 29.7898 33.8428 29.7236ZM33.5688 51.485C33.8036 51.8932 34.318 51.1607 33.7142 51.1215C33.6191 51.1831 33.4681 51.2334 33.5688 51.485ZM47.2172 53.4587C47.2742 53.4493 47.3275 53.424 47.3708 53.3857C47.4141 53.3474 47.4458 53.2977 47.4621 53.2422C47.4784 53.1868 47.4788 53.1278 47.4632 53.0722C47.4476 53.0165 47.4166 52.9664 47.3737 52.9275C47.0942 52.6256 46.6245 53.4308 47.2172 53.4587ZM47.8602 49.2708C47.9273 49.1366 47.9273 48.9633 47.7595 48.9074C46.9544 48.7844 47.3737 50.0145 47.8602 49.2708ZM46.5406 45.9664C46.4856 45.9524 46.4279 45.9524 46.3729 45.9664C45.5118 46.5646 47.3626 46.7547 46.5406 45.9664ZM48.5647 45.0494C48.766 44.8705 48.7772 44.4567 48.3858 44.4902C47.9944 44.5238 48.095 45.3289 48.5647 45.0494ZM49.6103 47.1349C49.6051 47.0983 49.5918 47.0633 49.5715 47.0324C49.5512 47.0014 49.5244 46.9754 49.4929 46.956C49.4517 46.9269 49.4025 46.9111 49.3521 46.9108C49.3017 46.9105 49.2523 46.9258 49.2108 46.9544C49.1694 46.9831 49.1377 47.0239 49.1201 47.0712C49.1025 47.1184 49.0999 47.17 49.1126 47.2188C49.1238 47.2848 49.1607 47.3437 49.2152 47.3825C49.2697 47.4213 49.3374 47.4368 49.4034 47.4257C49.4694 47.4146 49.5283 47.3777 49.5671 47.3232C49.6058 47.2686 49.6214 47.2009 49.6103 47.1349ZM51.2094 48.8459C51.2637 48.8325 51.3122 48.8019 51.3475 48.7585C51.3829 48.7151 51.4031 48.6614 51.4051 48.6055C51.4221 48.5469 51.4152 48.4839 51.3859 48.4305C51.3565 48.377 51.3071 48.3373 51.2485 48.3203C51.19 48.3032 51.127 48.3102 51.0735 48.3395C51.0201 48.3689 50.9804 48.4183 50.9634 48.4769C50.8795 48.5607 50.9242 48.9186 51.2094 48.8459ZM50.7397 51.4738C50.6829 51.5 50.6373 51.5456 50.6111 51.6024C50.2756 52.743 51.7685 51.4906 50.7397 51.4738ZM54.7934 51.6863C54.7854 51.625 54.7555 51.5686 54.7093 51.5276C54.6631 51.4865 54.6036 51.4634 54.5418 51.4626C53.636 51.7142 54.6369 52.5585 54.7934 51.6863ZM55.6042 48.4433C55.8446 48.5551 56.0403 48.0799 55.7551 47.9513C55.5986 47.8283 55.2631 48.1022 55.47 48.3762C55.5044 48.415 55.5525 48.4391 55.6042 48.4433ZM57.7289 49.3379C57.9805 49.3379 58.1426 48.7788 57.7289 48.7788C57.6115 48.7788 57.4829 48.8459 57.4549 49.0583C57.4516 49.0954 57.4563 49.1328 57.4688 49.1678C57.4814 49.2029 57.5013 49.2348 57.5274 49.2614C57.5534 49.2879 57.5849 49.3085 57.6197 49.3218C57.6545 49.335 57.6917 49.3405 57.7289 49.3379ZM49.7892 57.0651C49.8633 57.0577 49.9315 57.0211 49.9787 56.9635C50.0259 56.9058 50.0482 56.8317 50.0408 56.7576C50.0334 56.6835 49.9968 56.6153 49.9392 56.5681C49.8815 56.5209 49.8074 56.4986 49.7333 56.506C49.6591 56.5134 49.591 56.55 49.5438 56.6076C49.4966 56.6653 49.4743 56.7394 49.4817 56.8135C49.4891 56.8877 49.5257 56.9558 49.5833 57.003C49.641 57.0502 49.7151 57.0725 49.7892 57.0651ZM47.3122 60.241C47.5527 60.4367 48.0223 60.0621 47.754 59.7266C47.5694 59.4079 46.9824 59.8608 47.3122 60.241ZM50.5943 61.0685C50.6533 61.0298 50.6971 60.972 50.7184 60.9048C50.7398 60.8376 50.7375 60.7651 50.7118 60.6995C50.7118 60.5373 50.3316 60.2857 50.2253 60.6492C50.1914 60.7023 50.1757 60.765 50.1806 60.8278C50.1854 60.8907 50.2106 60.9502 50.2522 60.9975C50.2938 61.0449 50.3497 61.0774 50.4114 61.0902C50.4731 61.103 50.5373 61.0954 50.5943 61.0685ZM46.9264 56.2376C46.8593 56.1985 46.8314 56.1929 46.6636 56.2376C46.4959 56.2823 46.4791 56.478 46.6636 56.6458C46.8482 56.8135 47.3346 56.4724 46.9264 56.2376ZM66.9825 39.8494C66.9964 39.7598 66.9882 39.6681 66.9587 39.5823C66.9292 39.4965 66.8793 39.4192 66.8132 39.357C66.7472 39.2948 66.667 39.2496 66.5796 39.2254C66.4922 39.2011 66.4002 39.1984 66.3115 39.2176C66.1992 39.2605 66.1073 39.3445 66.0543 39.4525C66.0097 39.4954 65.9755 39.5479 65.9542 39.606C65.9329 39.6642 65.9251 39.7264 65.9313 39.7879C65.7748 40.4086 66.8315 40.6155 66.9825 39.8494ZM68.3859 41.6834C69.0457 42.1475 69.8676 41.1802 69.4315 40.6043C69.3283 40.4584 69.1783 40.3522 69.0064 40.3034C68.8345 40.2546 68.6511 40.2661 68.4866 40.3359C68.0225 40.5819 67.8268 41.4038 68.3859 41.6834ZM68.9171 44.8369C69.2749 45.6365 70.5945 44.4008 69.7167 43.8472C69.1408 43.4782 68.6375 44.3728 68.9171 44.8369ZM67.2733 47.7891C67.3717 47.8001 67.4713 47.7903 67.5656 47.7602C67.66 47.7301 67.7469 47.6804 67.8207 47.6145C67.8946 47.5485 67.9537 47.4678 67.9943 47.3774C68.0348 47.2871 68.0559 47.1892 68.056 47.0902C68.3132 46.4081 67.564 46.0055 67.1111 46.1173C66.4234 46.2851 66.5911 47.873 67.2733 47.7891ZM64.2707 48.5775C64.3855 48.6664 64.5265 48.7145 64.6717 48.7144C64.8168 48.7143 64.9578 48.666 65.0725 48.577C65.1871 48.4879 65.2689 48.3633 65.3049 48.2227C65.341 48.0821 65.3292 47.9335 65.2716 47.8003C64.9529 47.0567 63.9296 47.3642 64.0582 48.242C64.1008 48.3694 64.1737 48.4846 64.2707 48.5775ZM62.543 45.9831C62.4737 45.9758 62.4036 45.9829 62.3372 46.0041C62.2708 46.0253 62.2095 46.06 62.1572 46.1061C61.8664 46.3633 61.8609 47.0734 62.3026 47.1517C62.8617 47.381 63.3761 46.4975 62.9008 46.1285C62.7967 46.0489 62.6731 45.9987 62.543 45.9831Z" fill="black"/>
<path d="M61.1172 83.4618C58.1594 83.1263 55.0227 82.8691 52.0928 83.5736L47.357 73.0339C48.4752 71.3901 49.1686 68.8181 49.6438 66.5704C52.0537 66.9058 54.4803 65.9609 53.6304 63.702C53.1216 62.3769 52.2885 61.0182 51.8915 59.6539C51.4787 58.1513 51.3162 56.5909 51.4107 55.0355C51.6898 55.1457 51.9838 55.2135 52.2829 55.2368C53.3565 55.3095 54.184 54.6776 54.9612 54.0346C56.7794 52.5014 58.2767 50.624 59.3671 48.5104C59.248 48.2174 59.1079 47.9333 58.9478 47.6605C59.4495 47.4831 59.9196 47.2264 60.34 46.9001C60.5525 49.7517 63.0518 51.5129 64.9081 51.1775C67.5081 50.7134 69.1911 49.008 70.8126 46.9057C71.6077 45.9655 72.1332 44.8274 72.3334 43.6124C72.585 41.5772 72.2439 38.7256 70.2646 37.6185C69.7572 37.342 69.1912 37.1906 68.6135 37.177C68.0358 37.1634 67.4632 37.2879 66.9434 37.5402C65.7174 38.0583 64.741 39.0327 64.2204 40.2576C63.2475 38.7144 59.8312 39.7656 60.7538 43.0533C60.1199 43.2936 59.5753 43.723 59.1938 44.2834C58.9711 44.6 58.7243 44.8991 58.4557 45.178C58.2321 45.3793 57.9469 45.4911 57.7121 45.6812C57.6675 45.6458 57.628 45.6044 57.5947 45.5582H57.522C55.8629 46.5446 54.3161 47.7089 52.9092 49.0304C51.584 46.2907 49.3643 42.6339 46.8873 41.0516C46.8538 40.5316 46.809 39.9333 46.8146 39.9333C47.5359 39.5196 48.492 39.4413 48.7995 37.6968C49.0158 36.2942 48.9358 34.8619 48.5647 33.4921C50.1023 32.933 50.4042 30.7747 49.9905 31.222C49.7938 31.4667 49.5162 31.6333 49.2077 31.6917C49.6384 31.1554 49.8594 30.4809 49.8296 29.7937C49.7997 29.1065 49.5211 28.4536 49.0456 27.9567C49.0258 27.9326 48.9988 27.9154 48.9685 27.9078C48.9383 27.9002 48.9064 27.9025 48.8775 27.9144C48.8487 27.9263 48.8245 27.9472 48.8084 27.9739C48.7923 28.0007 48.7853 28.0319 48.7884 28.0629C48.8523 28.4223 48.7809 28.7927 48.5878 29.1025C48.3947 29.4123 48.0936 29.6395 47.7428 29.7403V29.1197C47.7438 29.0968 47.7369 29.0742 47.7233 29.0557C47.7097 29.0372 47.6902 29.0239 47.668 29.018C47.6458 29.0121 47.6222 29.014 47.6013 29.0234C47.5803 29.0327 47.5632 29.049 47.5527 29.0694C47.4024 29.3247 47.203 29.5476 46.9659 29.7251C46.7288 29.9027 46.4588 30.0314 46.1716 30.1038C46.249 29.837 46.3125 29.5664 46.3617 29.293C46.3644 29.2636 46.3591 29.2341 46.3462 29.2075C46.3334 29.1809 46.3135 29.1583 46.2887 29.1422C46.264 29.1261 46.2353 29.1171 46.2058 29.116C46.1763 29.115 46.1471 29.1221 46.1213 29.1365L44.8465 29.9081C44.8465 29.9081 45.0478 29.3937 44.4383 29.4384C44.4383 29.4384 42.4534 31.2835 41.7433 31.2444C41.2345 31.2444 41.0164 32.1726 41.8272 32.9218C40.3343 34.0401 40.7704 37.0985 42.213 38.1217C41.8495 38.6809 41.7936 38.7424 41.8719 38.7591C42.0721 38.8255 42.2816 38.8595 42.4925 38.8598C42.2561 38.9242 42.0302 39.0221 41.8216 39.1505C40.3888 37.3871 38.8364 35.7244 37.1752 34.1743C37.0466 30.21 36.9068 26.5589 36.5601 26.4303C36.4652 26.3975 36.368 26.3713 36.2694 26.352C36.5993 25.2785 36.2694 23.752 35.1511 23.2768C39.2216 18.7478 39.7528 18.6136 39.5515 17.7749C40.284 18.239 41.2289 17.7134 41.6818 17.0984C43.622 16.3827 43.2977 11.8984 42.6994 12.5079C42.4758 12.7371 42.6379 13.5647 41.3966 13.5982C40.6977 13.5982 39.9485 13.3578 39.5795 13.6821C38.1816 13.7548 37.656 16.0416 38.3382 16.9642C38.1128 17.0084 37.8994 17.0999 37.7119 17.2326L33.7589 22.3654C33.6135 22.3654 32.9761 21.974 32.8084 22.6114C32.7731 22.7452 32.7731 22.8858 32.8084 23.0196C32.6424 22.9579 32.4599 22.9579 32.294 23.0196C32.1741 23.0544 32.0693 23.1284 31.9963 23.2298C31.9234 23.3311 31.8864 23.4539 31.8914 23.5787C31.8878 23.671 31.9111 23.7623 31.9585 23.8415C31.8771 23.8496 31.8008 23.8849 31.7419 23.9417C31.6831 23.9985 31.6451 24.0735 31.6342 24.1546C31.615 24.2606 31.619 24.3695 31.6461 24.4738C31.6731 24.578 31.7225 24.6752 31.7907 24.7585L27.1108 29.8522C27.1108 29.8522 26.4566 30.5735 26.8089 30.9257C26.8089 30.9257 27.1499 31.2668 27.9271 30.4896L33.1886 25.6084C33.1896 25.774 33.2347 25.9364 33.3192 26.0789C33.4037 26.2213 33.5246 26.3388 33.6694 26.4191C33.529 26.4238 33.389 26.4369 33.2501 26.4582C33.2165 26.4582 33.2501 26.5142 33.2501 26.5142C36.4539 26.4191 36.5434 26.5757 36.5601 26.5701C36.6049 27.8113 37.0745 32.8603 37.0242 34.1407C37.0219 34.1537 37.0219 34.1669 37.0242 34.1799C37.0242 34.3029 39.6465 36.791 41.6818 39.212C41.0285 39.713 40.4876 40.3454 40.0939 41.0684C38.5339 43.6515 37.9692 51.5353 37.9412 54.1353C37.4939 58.2002 34.5864 59.1171 33.6694 58.0101C32.9932 57.2508 32.2441 56.5597 31.4329 55.9469C30.8402 55.2759 29.8953 54.3422 29.1572 54.6049C30.4097 53.4308 32.6183 52.9275 33.9658 50.2213C36.1184 45.8881 36.001 40.0843 35.7774 42.5836C33.9091 40.4 32.6815 37.742 32.2305 34.9039C31.7795 32.0657 32.1227 29.1581 33.2221 26.503C33.2221 26.4471 33.1438 26.4023 33.1215 26.4638C29.0622 35.6783 35.7047 42.7234 35.7326 42.7793C35.5769 44.2422 35.2925 45.6885 34.8827 47.1014C33.3563 52.5585 31.9417 52.2175 29.3585 54.1856C28.988 54.4185 28.6928 54.7535 28.5083 55.1503C28.3238 55.5471 28.2579 55.9888 28.3185 56.4221C20.9883 59.2178 22.4644 65.5472 22.4644 65.5472L24.427 77.781C18.6344 80.0622 12.9144 82.5168 7.28958 85.1895C7.25044 85.1895 7.26162 85.2901 7.31753 85.2845C11.4942 84.9379 15.492 86.017 19.1711 87.8621C18.1438 88.127 17.1397 88.4748 16.1686 88.9021C15.2013 89.2823 14.2452 89.7017 13.3058 90.149C11.3034 91.1153 9.37964 92.237 7.55237 93.5038C7.47409 93.5038 7.50764 93.6324 7.55237 93.6156C10.7394 93.0565 13.0934 92.6539 16.1518 92.967C13.1493 94.5829 7.06033 97.96 7.01001 97.96L7.37345 99.3523H31.1142C31.1142 99.3523 31.5615 97.6413 32.8195 99.5759C32.8195 99.5759 42.6994 101.013 53.7031 109.008V107.393C53.7031 107.393 45.8753 100.51 32.1206 98.0271C36.1743 97.8259 40.4349 97.1996 44.4215 98.4018C50.544 100.258 54.9109 103.434 55.0954 103.289C62.0733 96.853 59.6523 99.4082 66.401 93.3919C67.3121 93.7985 68.2455 94.1532 69.1967 94.4543C68.4139 94.9687 62.0622 99.2293 53.9044 107.314L53.9939 109.02C53.9939 109.02 62.6437 99.5648 69.275 95.4887C69.275 95.4887 69.275 94.3704 69.2414 94.3704C68.33 94.0182 67.4019 93.6268 66.4457 93.3528C68.3915 91.6307 69.1296 91.4685 68.8276 91.3399C67.5853 90.7124 66.2997 90.1743 64.9808 89.7296C66.7477 88.2926 70.5106 85.4131 70.4212 85.3796C66.7421 84.06 66.4569 84.0712 61.1172 83.4618ZM39.4508 13.8107C39.3771 13.9158 39.3313 14.038 39.3179 14.1657C39.3046 14.2934 39.324 14.4224 39.3743 14.5405C39.4247 14.6586 39.5044 14.7619 39.6059 14.8407C39.7073 14.9194 39.8271 14.9709 39.9541 14.9904C40.9996 14.9904 39.8143 15.6055 39.7696 15.7341C39.7542 15.8016 39.7625 15.8722 39.793 15.9343C39.8236 15.9964 39.8745 16.0461 39.9373 16.0752C40.256 16.2261 40.53 15.913 40.7984 15.8515C40.9661 15.8124 41.1786 15.8906 41.1953 16.0584C41.2121 16.2261 40.9717 16.3715 40.8878 16.556C40.8541 16.6433 40.8518 16.7396 40.8814 16.8284C40.911 16.9172 40.9706 16.9929 41.05 17.0425C41.1472 17.103 41.2598 17.134 41.3743 17.1319C41.1653 17.414 40.8661 17.6161 40.5263 17.7046C40.1866 17.7931 39.8268 17.7627 39.5068 17.6184C39.4482 17.4119 39.3223 17.2309 39.1491 17.1043C38.9758 16.9776 38.7652 16.9126 38.5506 16.9194C38.0866 16.4665 37.7567 14.3866 39.4508 13.8107ZM33.5185 22.4213C33.5809 22.4414 33.6444 22.4582 33.7086 22.4716C33.9881 22.6226 33.9658 23.0811 33.949 23.2376C33.7645 23.2376 33.703 23.4501 33.6806 23.5955C33.4178 23.5228 33.3116 23.5508 33.1215 23.2712C33.0828 23.2225 33.0491 23.17 33.0208 23.1146C32.7692 22.6785 32.9705 22.2312 33.5185 22.4213ZM32.3499 23.1146C32.5437 23.0808 32.7431 23.1207 32.909 23.2265C32.9735 23.3689 33.0783 23.4893 33.2104 23.5727C33.3426 23.6562 33.4964 23.6991 33.6527 23.6961C33.6453 23.7837 33.6587 23.8719 33.6918 23.9533C33.6411 24.0531 33.5586 24.133 33.4573 24.1806C33.356 24.2282 33.2418 24.2407 33.1327 24.2161C32.9497 24.2343 32.7651 24.2116 32.592 24.1497C32.4189 24.0879 32.2617 23.9883 32.1318 23.8583C32.0835 23.7992 32.0504 23.7292 32.0352 23.6544C32.0201 23.5796 32.0234 23.5022 32.0449 23.429C32.0663 23.3557 32.1053 23.2888 32.1585 23.2341C32.2116 23.1793 32.2773 23.1383 32.3499 23.1146ZM31.9026 24.7305C31.8123 24.6257 31.7592 24.494 31.7516 24.3559C31.7516 24.1714 31.8187 23.8974 32.0591 23.9701C32.1902 24.0979 32.3462 24.1972 32.5175 24.2616C32.6888 24.3261 32.8716 24.3544 33.0544 24.3447C33.0178 24.4563 32.9557 24.5578 32.873 24.6411C32.7902 24.7245 32.6892 24.7874 32.5779 24.8248C32.4667 24.8623 32.3482 24.8733 32.2319 24.8569C32.1156 24.8405 32.0048 24.7973 31.9082 24.7305H31.9026ZM36.1464 26.3073L33.8316 26.3688C33.6668 26.3044 33.5231 26.1956 33.4165 26.0544C33.3099 25.9133 33.2445 25.7453 33.2277 25.5692L34.223 24.6522C34.441 25.2114 35.207 25.2114 34.9722 25.1051C34.7374 24.9989 34.3795 24.9374 34.3012 24.5125C34.2933 24.4155 34.3234 24.3193 34.3851 24.2441C34.1959 24.1784 34.0171 24.0862 33.8539 23.9701C33.7791 23.867 33.7472 23.7388 33.7649 23.6126C33.7826 23.4865 33.8486 23.3721 33.949 23.2936H35.0225C36.2135 23.9701 36.2638 25.0548 36.152 26.3073H36.1464ZM52.1767 86.0114C52.3037 86.4386 52.4588 86.857 52.6408 87.2639C52.0954 87.7856 51.456 88.1992 50.7565 88.4828C50.0296 87.6329 50.1974 87.8174 50.0296 87.6161C50.8037 87.1641 51.524 86.6257 52.1767 86.0114ZM52.4954 89.8638C52.0537 90.2664 50.2589 91.7872 49.6997 92.1003C49.4761 91.9382 49.6997 91.4014 49.7724 91.2225C50.2197 90.4509 50.544 90.5124 50.5832 88.6002C51.2597 88.5499 52.5625 87.5546 52.8197 87.2247C53.16 87.8353 53.4301 88.4824 53.6249 89.1537C53.5298 89.2152 53.4068 89.2935 53.3285 89.355C53.2388 89.1201 53.106 88.9039 52.9371 88.7176C52.8532 88.617 52.7358 88.4604 52.5849 88.5331C52.4339 88.6058 52.3836 88.8909 52.3668 89.0251C52.3441 89.3095 52.3822 89.5954 52.4786 89.8638H52.4954ZM53.3285 65.2285C52.7694 66.4977 50.9131 66.4697 49.7053 66.2908C50.0688 64.5239 50.2365 63.2827 50.2645 62.936C51.5561 63.0814 53.4739 63.8194 53.3285 65.2285ZM61.1564 40.4533C61.8497 39.609 63.46 39.2624 64.0918 40.3527C64.0963 40.3629 64.1032 40.3718 64.112 40.3786C64.1208 40.3854 64.1311 40.39 64.1421 40.3918C64.1464 40.4 64.1528 40.4069 64.1607 40.4117C64.1685 40.4165 64.1776 40.4191 64.1869 40.4191C64.1961 40.4191 64.2052 40.4165 64.213 40.4117C64.2209 40.4069 64.2273 40.4 64.2316 40.3918C66.2445 36.3046 72.2383 35.7063 72.1601 42.8911C72.1601 45.1277 70.684 46.8889 69.2358 48.4433C63.6445 54.426 58.9142 48.5999 60.9159 44.3952C60.9241 44.3736 60.9241 44.3497 60.9159 44.3281C61.2226 44.157 61.558 44.0433 61.9056 43.9926C61.654 45.2059 63.8122 45.273 63.9856 43.8528C64.0132 43.5706 63.9434 43.2875 63.7878 43.0504C63.6321 42.8134 63.4 42.6368 63.1301 42.5501C62.8854 42.4911 62.6274 42.5315 62.4125 42.6626C62.1976 42.7936 62.0435 43.0045 61.9839 43.249C61.6418 43.0163 61.2234 42.9242 60.8153 42.9918C60.7202 42.1139 60.5805 41.1914 61.1843 40.4533H61.1564ZM62.023 43.3217C62.0891 43.0985 62.241 42.9108 62.4455 42.7996C62.6499 42.6885 62.8901 42.6631 63.1133 42.729C63.3115 42.7974 63.4849 42.9233 63.6113 43.0906C63.7378 43.2579 63.8116 43.459 63.8234 43.6683C63.8626 44.7866 61.8944 45.2507 61.9559 43.9982H62.0118C62.0566 43.9982 62.1181 43.9255 62.1237 43.9087C62.1677 43.8139 62.1842 43.7086 62.1713 43.6048C62.1585 43.501 62.1168 43.4029 62.051 43.3217H62.023ZM59.1043 44.4791C59.464 43.9438 59.9524 43.5074 60.5245 43.2098C60.9551 43.0197 62.2019 43.0365 61.9839 43.8584C61.5761 43.8764 61.1846 44.0232 60.8656 44.2778C60.6755 44.2778 60.2673 45.6924 60.3065 46.7547C59.8536 47.0623 59.3559 47.3139 58.9031 47.6158C57.2201 44.4343 57.3934 46.6541 59.1323 44.4791H59.1043ZM48.4808 33.5145C49.1909 38.9492 48.2516 39.0275 46.7252 39.7768C46.713 39.7831 46.7028 39.7928 46.6959 39.8046C46.6889 39.8165 46.6855 39.8301 46.686 39.8439C46.68 40.4714 46.7118 41.0988 46.7811 41.7225C46.201 42.3967 45.5731 43.0283 44.9024 43.6124C43.7665 42.7858 42.9367 41.606 42.5429 40.2576C42.6197 39.7844 42.6347 39.3033 42.5876 38.8262C42.9342 38.8262 43.2977 38.7759 43.5996 38.7591C43.6611 38.7591 43.6891 38.6305 43.6835 38.6194C43.4757 38.0341 43.2077 37.4719 42.8839 36.942C42.8839 36.9979 42.7721 37.1377 42.7441 37.1936C42.739 37.1906 42.7333 37.1891 42.7274 37.1891C42.7215 37.1891 42.7157 37.1906 42.7106 37.1936C41.7097 37.1936 41.5364 35.7398 42.4366 35.6895C42.9957 35.656 42.9957 36.2766 43.4039 36.4443C43.4092 36.4468 43.4149 36.4481 43.4207 36.4481C43.4265 36.4481 43.4322 36.4468 43.4375 36.4443C43.7114 36.5114 43.9407 36.2654 43.9966 35.9747C44.0693 35.4882 43.5772 34.8564 44.0916 33.9506C45.9759 34.314 47.3234 33.8052 48.4864 33.5145H48.4808ZM41.8831 32.9162C42.4959 33.3891 43.2065 33.7196 43.963 33.8835C43.5213 34.5153 43.9127 35.3373 43.9127 35.7175C43.9053 35.8583 43.8522 35.993 43.7614 36.1009C43.6706 36.2089 43.547 36.2843 43.4095 36.3157C43.1579 36.0753 43.0852 35.7175 42.7274 35.5833C42.5724 35.5285 42.404 35.5251 42.2469 35.5734C42.0898 35.6217 41.9525 35.7193 41.8551 35.8517C41.7742 35.9971 41.7336 36.1616 41.7376 36.328C41.7416 36.4945 41.79 36.6568 41.8778 36.7982C41.9656 36.9397 42.0897 37.055 42.2371 37.1324C42.3845 37.2098 42.5499 37.2463 42.7162 37.2383C42.582 37.4899 42.431 37.7248 42.2801 37.9652C41.6074 37.318 41.1955 36.4466 41.1223 35.5161C41.0492 34.5856 41.3198 33.6605 41.8831 32.9162ZM41.9725 38.6417C42.3168 38.1889 42.6288 37.7125 42.9063 37.2159C42.9846 37.4172 43.3983 38.3342 43.5325 38.5746C43.2474 38.5802 42.2018 38.6082 41.9725 38.6417ZM42.4758 38.9772C42.4758 39.1114 42.3416 40.1961 42.4758 40.2744C42.6177 40.9864 42.9005 41.6628 43.3076 42.2639C43.7148 42.865 44.238 43.3786 44.8465 43.7746C45.6305 43.2177 46.3196 42.538 46.8873 41.7617C46.8972 41.756 46.9055 41.7479 46.9113 41.7381C46.9172 41.7283 46.9205 41.7172 46.9209 41.7058C46.9209 41.6051 46.9209 41.3982 46.8873 41.1466C49.5376 43.5229 50.4993 44.5629 52.7806 49.0695C52.8197 49.1422 52.9092 49.1031 52.9203 49.036C54.4747 47.9177 55.8726 46.5814 57.5332 45.5917C58.0923 46.5646 58.6514 47.4928 59.2106 48.4713C57.891 50.8811 55.1233 54.3925 53.1831 54.9963C51.83 55.4157 50.298 54.2862 49.8619 53.8781L49.8283 53.9116C50.2435 54.3858 50.7541 54.7668 51.3268 55.0299C50.8627 57.1602 51.6287 59.5589 52.3892 61.5158C52.7694 62.4887 53.6249 63.7523 53.4459 64.8706C53.3006 63.3162 51.338 62.2595 44.1587 61.8625L44.6508 58.1498C44.9974 56.355 44.2818 54.0458 44.4551 49.8467C44.7067 43.892 46.3785 43.344 47.5918 41.9071C47.5962 41.903 47.5998 41.8982 47.6023 41.8927C47.6048 41.8873 47.6063 41.8815 47.6065 41.8755C47.6068 41.8695 47.6059 41.8636 47.6038 41.8579C47.6018 41.8523 47.5986 41.8472 47.5946 41.8428C47.5906 41.8384 47.5857 41.8348 47.5803 41.8323C47.5749 41.8297 47.569 41.8283 47.563 41.828C47.5571 41.8278 47.5511 41.8287 47.5455 41.8307C47.5399 41.8328 47.5347 41.8359 47.5303 41.84C45.7131 43.4782 44.7346 44.4008 44.36 48.8403C44.0301 52.6424 44.7067 55.6058 44.5557 57.6354L38.0586 54.1744C38.5003 47.4928 38.6457 40.6826 42.4758 38.9772ZM28.7547 55.0243C29.5374 54.3366 30.2811 55.0243 30.9409 55.6729C30.1012 55.8433 29.2752 56.075 28.4695 56.3662C28.4112 56.1356 28.4066 55.8947 28.456 55.6621C28.5055 55.4294 28.6076 55.2112 28.7547 55.0243ZM30.3146 66.6319C32.8251 66.397 37.3877 64.6581 37.3877 64.6581C37.3877 64.6581 37.5554 59.8105 37.7567 59.4582C37.958 59.106 37.9244 59.4582 37.9244 59.4582C36.918 74.2081 40.8207 78.4184 40.8207 78.4184L46.3282 84.9882C45.9335 85.1177 45.5471 85.2708 45.1708 85.4467C43.7496 82.8739 41.9219 80.5477 39.7584 78.5582C38.7318 77.6053 37.6073 76.7637 36.4036 76.0477C35.2014 75.3487 33.826 74.689 32.4058 74.7952C32.3666 74.7281 32.512 74.689 29.6716 75.7513L30.3146 66.6319ZM7.70333 93.4702C9.49551 92.3018 11.3634 91.254 13.2947 90.3335C14.329 89.8414 15.3858 89.3885 16.4537 88.9804C17.4099 88.6114 18.4275 88.3542 19.3612 87.946C23.9681 90.3604 28.0847 93.6123 31.5 97.5351C28.4024 95.2986 24.4214 94.4767 20.7647 93.6212C15.9505 92.4861 13.2555 92.3464 7.70333 93.4926V93.4702ZM7.43495 97.9433C7.49086 97.9153 16.4146 93.0509 16.4593 92.995C19.5178 93.3472 27.9383 95.1197 31.7181 97.9545C31.2316 97.9545 21.7264 97.468 7.43495 97.9712V97.9433ZM7.56355 85.1336C13.1101 82.5243 18.7369 80.1014 24.4437 77.8648L24.7569 79.7994L25.5173 79.8274C25.6042 80.3275 25.7448 80.8167 25.9366 81.2867C25.6571 81.2867 25.4781 81.8459 24.9805 82.405C24.638 82.7147 24.2631 82.9865 23.8622 83.2157C23.3702 83.5736 23.5044 83.9594 24.0412 84.1327C24.9749 84.4291 26.2106 83.8755 27.0661 83.5736C27.1649 83.265 27.2864 82.9641 27.4295 82.6734C27.7482 82.3714 27.8041 83.3108 27.7929 83.4506C28.042 83.4952 28.2958 83.5065 28.5478 83.4841C28.6816 82.7127 28.6491 81.9216 28.4527 81.1637H28.3353C28.4005 80.7644 28.4341 80.3606 28.4359 79.956L29.3529 79.9895L29.6437 75.9079C32.3499 74.9238 32.3499 74.9741 32.4002 74.9238C35.2741 74.9853 37.9915 77.1603 39.9597 79.039C41.9413 80.9636 43.6461 83.1539 45.0254 85.5473C42.7889 86.6656 40.9717 88.5387 39.1433 90.1713C36.4643 92.4662 34.037 95.0397 31.9026 97.8482C26.1994 91.1386 16.3363 84.0824 7.56355 85.1615V85.1336ZM27.0549 83.4562C26.3056 83.7057 25.537 83.8927 24.7569 84.0153C24.5108 84.0153 23.2975 84.0153 23.907 83.2772C24.776 82.8889 25.4737 82.1971 25.8695 81.3315C26.718 81.4576 27.5831 81.412 28.4136 81.1973C28.4136 81.7005 28.4751 81.3259 28.4583 83.3723C28.2939 83.3703 28.1295 83.3796 27.9663 83.4002C28.0278 82.2652 27.2841 82.131 27.0549 83.5009V83.4562ZM28.2403 81.1469C27.5144 81.2503 26.7815 81.2951 26.0485 81.2811C26.0485 81.2811 25.8024 80.3027 25.6627 79.8274L28.3465 79.9224C28.285 80.3642 28.2347 81.1805 28.2403 81.1917V81.1469ZM68.632 91.3958C66.2333 92.9335 64.3266 95.142 62.0901 96.8865C59.5731 98.7741 57.215 100.865 55.0395 103.138C51.6499 101.118 48.0525 99.4707 44.3097 98.2228C41.1898 97.2667 35.1735 97.4065 32.171 97.9041C36.1464 96.2267 38.9085 95.9919 42.8671 96.4112C46.8258 96.8306 49.5376 97.4568 53.0601 99.766C53.295 99.9226 57.1418 96.0366 64.8858 89.7408C66.1606 90.2888 67.3907 90.8814 68.632 91.4406V91.3958ZM70.1696 85.4131C64.3266 89.9421 58.6235 94.622 53.2111 99.6542C53.2082 99.6422 53.2027 99.6309 53.195 99.6212C53.1873 99.6116 53.1775 99.6037 53.1664 99.5983C50.0408 97.5183 46.563 96.6461 42.8671 96.2435C38.9532 95.8298 35.9619 96.0534 32.02 97.8259C34.1408 95.1988 36.4585 92.7371 38.9532 90.4621C42.9286 86.8277 44.1867 85.8157 46.4344 85.0776L48.8722 87.9963C49.231 87.9263 49.5763 87.7999 49.8954 87.6217L50.667 88.466C50.6391 88.466 50.4993 88.4995 50.4993 88.5499C50.3539 90.4006 50.3987 89.9197 49.6606 91.2169C49.5509 91.3734 49.4987 91.5631 49.513 91.7537C49.5273 91.9443 49.6071 92.1241 49.7389 92.2625C49.7724 92.2625 52.652 89.8918 52.6408 89.875C52.6296 89.8582 52.2997 88.6896 52.6855 88.6673C52.9707 88.6673 53.3285 89.4277 53.3565 89.4165C53.4867 89.3635 53.6075 89.2899 53.7143 89.1984C53.5582 88.4422 53.2624 87.7216 52.8421 87.0737C52.8421 87.0737 52.7358 87.1185 52.7191 87.1352C52.5793 86.7103 52.4339 86.2854 52.2717 85.866C52.6464 85.5194 52.8812 85.2733 52.8812 85.2733L52.132 83.5959C55.11 83.1598 58.1345 83.1429 61.1172 83.5456C66.2277 84.1998 66.6918 84.1942 70.1696 85.4579V85.4131Z" fill="black"/>
<path d="M92.3447 59.7937V59.7601H92.3055C92.2923 59.7582 92.2788 59.7611 92.2675 59.7683C92.2562 59.7755 92.2479 59.7865 92.244 59.7993L85.6071 63.5119C85.3052 65.0551 85.663 64.96 85.1374 70.7471C84.6566 71.3397 84.3546 72.1896 82.6437 72.827C81.685 73.1108 80.7503 73.4698 79.848 73.9006C78.6739 74.5659 78.3663 75.796 79.5461 76.6962C79.5212 76.7137 79.4986 76.7344 79.479 76.7577L79.3113 76.8528C79.2888 76.8687 79.2716 76.8909 79.2617 76.9166C79.2518 76.9423 79.2497 76.9703 79.2556 76.9972C79.2616 77.024 79.2754 77.0486 79.2952 77.0676C79.3151 77.0867 79.3401 77.0995 79.3672 77.1044C79.4399 77.1715 79.5014 77.1379 79.5685 77.1044C79.5712 77.1435 79.5712 77.1827 79.5685 77.2218C79.5685 77.2544 79.5814 77.2857 79.6045 77.3088C79.6276 77.3319 79.6589 77.3448 79.6915 77.3448C79.7241 77.3448 79.7554 77.3319 79.7785 77.3088C79.8015 77.2857 79.8145 77.2544 79.8145 77.2218V76.987L79.9151 76.9311C80.7483 77.4119 81.9448 77.6412 82.1964 78.7259C82.3809 79.531 81.7547 80.5151 80.9607 81.0798C80.9607 81.0798 80.8657 80.2914 80.8601 80.2803C80.8209 80.1684 80.6364 80.1684 80.642 80.3082V80.571L80.4351 80.2243C80.4155 80.2015 80.3884 80.1862 80.3586 80.1813C80.3288 80.1764 80.2983 80.1821 80.2723 80.1974C80.2463 80.2128 80.2266 80.2367 80.2165 80.2652C80.2064 80.2936 80.2066 80.3247 80.2171 80.353C80.3624 80.6661 80.5022 80.9792 80.6532 81.2923C78.6291 82.4106 77.9023 79.9224 76.633 78.8712C76.7952 78.0102 76.8343 78.027 76.8008 77.9487C76.8055 77.9314 76.8069 77.9134 76.8047 77.8956C76.8025 77.8779 76.7968 77.8607 76.788 77.8451C76.7792 77.8296 76.7674 77.8159 76.7532 77.8048C76.7391 77.7938 76.723 77.7857 76.7057 77.7809C76.6885 77.7762 76.6704 77.7748 76.6527 77.777C76.6349 77.7792 76.6177 77.7849 76.6022 77.7937C76.5866 77.8026 76.5729 77.8144 76.5619 77.8285C76.5509 77.8426 76.5428 77.8587 76.538 77.876C76.4988 77.971 76.4709 78.0717 76.4373 78.1723C76.4038 78.273 76.3982 78.2282 76.3702 78.3345L76.3087 78.15C76.3013 78.1225 76.2833 78.0992 76.2587 78.085C76.234 78.0709 76.2048 78.0671 76.1773 78.0745C76.1499 78.0819 76.1265 78.0999 76.1124 78.1245C76.0982 78.1492 76.0945 78.1784 76.1019 78.2059C76.0739 78.2618 76.1019 78.3513 76.1522 78.5358C75.8829 78.3652 75.5937 78.2281 75.2911 78.1276C74.5045 77.8971 73.6613 77.9566 72.9148 78.2953C72.8701 78.0829 72.8365 77.8648 72.8086 77.6523C72.7806 77.4399 72.6073 77.5517 72.5793 77.6523C72.5443 77.6676 72.5163 77.6956 72.5011 77.7306C72.4619 77.6747 72.4172 77.5852 72.311 77.63C72.2935 77.624 72.2746 77.6233 72.2567 77.6279C72.2388 77.6325 72.2227 77.6423 72.2102 77.6559C72.1977 77.6695 72.1895 77.6865 72.1866 77.7048C72.1836 77.723 72.186 77.7417 72.1935 77.7586C72.3333 77.9822 72.4675 78.2059 72.6017 78.4295C71.6618 78.9249 70.8219 79.5903 70.1247 80.3921C70.1181 80.4038 70.1154 80.4174 70.1172 80.4307C70.1191 80.4441 70.1252 80.4565 70.1347 80.466C70.1442 80.4755 70.1566 80.4816 70.17 80.4834C70.1833 80.4852 70.1969 80.4826 70.2086 80.476C70.9629 79.8047 71.777 79.2039 72.6408 78.6811C72.6856 78.9495 72.7415 79.2403 72.7974 79.4807C72.7974 79.6317 73.0826 79.5981 73.0602 79.4472C73.0629 79.4137 73.0629 79.38 73.0602 79.3465C73.0813 79.3267 73.0968 79.3016 73.1049 79.2738L73.1552 79.3521C73.1698 79.3792 73.1929 79.4007 73.2209 79.4133C73.2489 79.4259 73.2803 79.429 73.3102 79.422C73.3401 79.415 73.3669 79.3983 73.3864 79.3746C73.4059 79.3508 73.417 79.3213 73.418 79.2906V79.2626C73.4183 79.2474 73.4148 79.2323 73.408 79.2187C73.4012 79.2051 73.3912 79.1933 73.3789 79.1844C73.2671 78.9591 73.142 78.7406 73.0043 78.5302C73.5232 78.2883 74.0981 78.1923 74.6675 78.2524C75.2368 78.3125 75.7791 78.5264 76.2361 78.8712V78.916C76.2361 79.039 76.1913 79.162 76.1634 79.285C76.1354 79.408 76.1186 79.4975 76.1019 79.6037C76.0851 79.7099 76.3479 79.8665 76.3758 79.682V79.6037C76.3986 79.5865 76.4161 79.5633 76.4262 79.5366L76.5939 79.9727C76.6554 80.1293 76.907 80.0678 76.8511 79.9C76.7952 79.7323 76.7001 79.4416 76.6218 79.2179C77.6954 80.2803 78.59 82.6398 80.6812 81.5719C80.7203 81.9465 80.7259 82.0583 80.7762 82.5224C80.7826 82.554 80.7998 82.5824 80.8247 82.6028C80.8497 82.6232 80.8809 82.6343 80.9132 82.6343C80.9454 82.6343 80.9767 82.6232 81.0017 82.6028C81.0266 82.5824 81.0438 82.554 81.0502 82.5224C81.0502 82.405 81.0502 82.2876 81.0222 82.1701C81.0279 82.1462 81.0279 82.1213 81.0222 82.0974C81.0366 82.1031 81.0526 82.1031 81.067 82.0974C81.162 82.1589 81.3242 82.0974 81.2794 81.9465C81.202 81.7446 81.1143 81.5467 81.0166 81.3538C82.0063 80.6717 82.7779 79.3745 82.2132 78.3121C81.7938 77.5293 80.8713 77.2777 80.0549 76.864C80.3177 76.685 80.7315 76.6124 80.4855 76.4167C80.4128 76.1315 80.1723 76.4167 79.7865 76.6124V76.3775C79.7865 76.3597 79.7795 76.3427 79.7669 76.3301C79.7543 76.3175 79.7372 76.3104 79.7194 76.3104C79.7017 76.3104 79.6846 76.3175 79.672 76.3301C79.6594 76.3427 79.6524 76.3597 79.6524 76.3775C79.6524 76.4558 79.6244 76.5285 79.6076 76.6068C78.5732 75.8463 78.8304 74.7337 79.8928 74.113C80.9551 73.4924 82.2467 73.2632 83.3818 72.7935C83.8014 72.6044 84.1795 72.3341 84.4943 71.9983C84.809 71.6624 85.0542 71.2676 85.2157 70.8365L92.9821 66.9897C92.9969 66.9933 93.0125 66.9914 93.0259 66.9841C93.0394 66.9769 93.0496 66.9649 93.0547 66.9506C92.9429 66.4417 92.4006 59.8272 92.3447 59.7937ZM89.1911 65.3179L85.2772 70.7191C85.389 69.7015 85.8363 64.7811 85.6798 63.5566L89.2023 65.3179L92.2664 59.9446C92.3939 62.2703 92.6384 64.588 92.9988 66.8891L89.1911 65.3179ZM10.9909 71.3957L10.3815 70.3836L10.1578 71.4851L9.15139 71.7088L9.94536 72.2735L9.71052 73.347L10.6499 72.5754L11.7514 73.0786L11.2425 72.0666L11.9135 71.2391L10.9909 71.3957ZM69.3252 70.4395L68.4641 69.0697L68.1454 70.5626L66.7029 70.8645L67.8323 71.6305L67.5024 73.0898L68.8387 72.0387L70.4099 72.7264L69.683 71.3565L70.6336 70.2271L69.3252 70.4395ZM29.9399 11.5518C30.5438 11.6524 31.3154 11.5182 31.6565 12.1388L31.4887 12.2563C31.4547 12.4116 31.4765 12.5739 31.5502 12.7148C31.6532 12.9347 31.7993 13.1316 31.9798 13.294C32.1604 13.4563 32.3718 13.5807 32.6014 13.6597L32.73 13.6261C33.0487 13.833 33.4848 13.9784 33.7867 13.6541C34.0887 13.3298 33.8874 12.8154 33.893 12.8042C34.536 11.9152 33.1997 11.0653 33.1997 11.0653L33.0431 11.1771C32.4504 10.0589 34.0495 8.98534 32.6517 7.05633C31.0246 4.81981 26.6914 5.8542 27.9326 9.65071C28.0581 10.1225 28.3123 10.5501 28.6668 10.8858C29.0212 11.2215 29.462 11.4521 29.9399 11.5518ZM32.1317 11.8145C31.3965 11.0813 30.6037 10.4082 29.761 9.80167C29.9958 9.85759 30.1356 9.98059 30.3201 9.77372V9.69544C30.5382 9.1363 30.6724 9.72339 30.9575 9.29845V9.18104C31.1141 8.95738 31.0917 9.1419 31.2427 9.12512C31.3147 9.12959 31.3868 9.1201 31.4552 9.09717C31.6285 9.01889 31.5949 8.73932 31.8969 8.77287C32.0331 9.70135 32.2751 10.6112 32.6182 11.4847L32.1317 11.8145ZM33.7476 12.9831C33.7927 13.089 33.8071 13.2054 33.7893 13.319C33.7715 13.4327 33.7222 13.5391 33.647 13.6261C33.4121 13.8442 33.0878 13.7212 32.8642 13.5758C33.1988 13.4459 33.5005 13.2435 33.7476 12.9831ZM32.9984 8.24728C33.2444 9.36555 32.3498 10.4838 32.9145 11.2666L32.73 11.3952C32.238 9.76812 31.6844 7.25762 31.8577 8.63309C31.3322 8.59954 31.4608 8.81201 31.3657 8.89029C31.2707 8.96856 31.0135 8.89029 30.8401 8.97416C30.7898 8.97416 30.8401 9.09157 30.7898 9.11394C30.4487 9.47178 30.555 9.20899 30.2698 9.30404C30.1636 9.34318 30.158 9.37114 30.1077 9.4606C30.0573 9.55006 30.2419 9.6563 30.0573 9.75694C30.0573 9.75694 29.7498 9.71221 29.6324 9.70662C28.5141 8.83437 30.8849 10.9814 31.9752 11.9431L31.7515 12.0997C31.0973 10.7913 28.2066 12.4631 27.8991 8.58276C27.6531 5.36216 32.3498 5.2112 32.9984 8.24728ZM72.9931 96.6461C72.9802 96.7764 73.0134 96.907 73.087 97.0154C73.1605 97.1237 73.2698 97.2027 73.3957 97.2387C74.0331 97.2891 74.089 96.8306 74.089 96.8306L74.3741 95.7682L73.2559 95.6508L72.9931 96.6461ZM29.8057 2.85166C29.8057 2.76779 29.6436 2.77897 29.6548 2.85166C29.7181 3.4593 29.819 4.06244 29.9567 4.65766C30.0238 4.85335 30.3984 4.89808 29.8057 2.85166ZM32.853 6.01635C33.1006 5.57727 33.2886 5.1072 33.4121 4.61852C33.4103 4.6039 33.4046 4.59003 33.3956 4.57831C33.3867 4.56659 33.3748 4.55744 33.3612 4.55177C33.3476 4.5461 33.3327 4.54411 33.3181 4.54602C33.3035 4.54792 33.2896 4.55364 33.2779 4.5626C33.0051 4.9884 32.796 5.45179 32.6573 5.93807C32.6238 6.0443 32.8027 6.15054 32.853 6.01635ZM26.6522 6.22882C26.6645 6.23354 26.6778 6.2351 26.6908 6.23335C26.7038 6.2316 26.7162 6.22659 26.7268 6.21879C26.7374 6.21099 26.7458 6.20065 26.7514 6.18872C26.7569 6.17679 26.7593 6.16366 26.7585 6.15054C26.3844 5.57426 25.9516 5.03835 25.4669 4.55142C25.4054 4.5011 25.2991 4.55142 25.3494 4.64088C25.5507 4.89249 26.4006 5.97721 26.6522 6.22882ZM24.2088 10.1483C26.0707 9.89113 25.8862 9.5892 25.7576 9.5892C25.1985 9.6563 24.6953 9.87995 24.1641 9.98619C24.0523 10.003 24.1026 10.1651 24.2088 10.1483ZM27.9886 12.3569C28.0389 12.2898 27.955 12.1892 27.8767 12.2171C27.4329 12.4945 27.0105 12.8047 26.6131 13.1453C26.5236 13.218 26.6131 13.3633 26.7305 13.3018C27.1722 13.0177 27.5926 12.7019 27.9886 12.3569ZM29.9399 12.8881C29.8449 13.3578 29.8616 13.8554 29.7945 14.3306C29.7945 14.4481 29.9567 14.504 29.9791 14.381C30.1045 13.8939 30.1498 13.3897 30.1133 12.8881C30.1133 12.8651 30.1041 12.8431 30.0879 12.8268C30.0716 12.8105 30.0496 12.8014 30.0266 12.8014C30.0036 12.8014 29.9816 12.8105 29.9653 12.8268C29.9491 12.8431 29.9399 12.8651 29.9399 12.8881ZM27.8432 19.4411C27.9778 19.4524 28.1132 19.4348 28.2405 19.3896C28.3678 19.3444 28.484 19.2726 28.5814 19.1789C28.6787 19.0853 28.755 18.972 28.8051 18.8465C28.8552 18.7211 28.878 18.5864 28.872 18.4514C28.7713 17.0704 26.8032 17.2493 26.7529 18.3788C26.7669 18.6608 26.8871 18.927 27.0894 19.1241C27.2916 19.3211 27.5609 19.4344 27.8432 19.4411ZM28.6371 18.3228C28.6651 18.4385 28.6652 18.5591 28.6373 18.6747C28.6094 18.7903 28.5544 18.8976 28.4768 18.9878C28.3992 19.0779 28.3013 19.1483 28.1911 19.1931C28.0809 19.2379 27.9617 19.2558 27.8432 19.2454C27.618 19.2502 27.3988 19.1719 27.2277 19.0255C27.0565 18.879 26.9452 18.6747 26.915 18.4514C26.9271 18.2413 27.0148 18.0427 27.1618 17.8921C27.3089 17.7415 27.5055 17.6492 27.7153 17.6322C27.925 17.6152 28.1339 17.6746 28.3033 17.7994C28.4728 17.9243 28.5913 18.1062 28.6371 18.3117V18.3228ZM53.7534 30.8642C53.7981 30.9984 59.6298 31.25 60.9158 31.222C60.7486 31.3785 60.6293 31.5794 60.5718 31.8012C60.5144 32.0229 60.5213 32.2565 60.5915 32.4745C60.7593 32.8938 61.2849 32.9777 61.6763 33.0336C63.773 33.3132 65.8586 33.7325 68.179 33.2629C71.3437 32.6254 69.6663 29.4831 67.7596 30.9313C67.8308 30.5208 67.7778 30.0984 67.6073 29.7183C67.4369 29.3382 67.1568 29.0176 66.8029 28.7977C66.4491 28.5779 66.0376 28.4687 65.6213 28.4842C65.205 28.4997 64.8028 28.6392 64.4663 28.8848C64.4663 27.4591 62.3528 26.2681 61.4582 27.5485C61.6874 25.5133 59.8814 24.2329 57.9301 24.6131C55.8333 25.0101 55.4587 27.3976 56.3925 29.0079C56.1089 28.7784 55.7583 28.6476 55.3937 28.6353C55.0291 28.623 54.6705 28.7298 54.3721 28.9397C54.0737 29.1496 53.8519 29.451 53.7403 29.7983C53.6286 30.1455 53.6332 30.5197 53.7534 30.8642ZM64.5782 29.019C66.0878 28.1188 67.7149 29.019 67.5695 31.0934C67.5695 31.0934 67.7093 31.1493 67.7205 31.1382C69.5041 29.7068 70.9578 32.4521 68.3635 33.0448C66.2556 33.5256 63.7227 33.2125 61.5588 32.8323C59.8814 32.536 61.1451 30.3106 62.4143 31.1829C62.5094 31.25 62.5429 30.484 63.1747 30.4784C63.4823 30.4784 63.9016 30.5846 64.0022 30.9089C64.0022 30.9089 64.1141 30.7635 64.1029 30.73C63.9575 30.1038 63.9519 29.3937 64.5782 29.019ZM61.2234 27.7498C61.2234 27.8616 61.3967 27.7834 61.4023 27.7498C62.4143 26.4359 64.1979 27.5877 64.2539 28.9855C64.0315 29.1499 63.8716 29.385 63.8005 29.6522C63.7294 29.9194 63.7512 30.2029 63.8625 30.456C63.3033 30.0814 62.4031 30.2435 62.3416 31.0151C62.2448 30.9308 62.1322 30.8665 62.0103 30.8261C61.8884 30.7858 61.7597 30.7701 61.6316 30.78C61.5036 30.7898 61.3788 30.8251 61.2646 30.8837C61.1503 30.9424 61.0489 31.0231 60.9662 31.1214C58.7296 30.8083 54.1447 30.8362 53.9043 30.73C53.6639 30.6237 53.9043 29.7235 54.0721 29.4552C54.2105 29.2724 54.3875 29.1225 54.5905 29.0159C54.7935 28.9094 55.0174 28.8489 55.2464 28.8388C55.4755 28.8286 55.7039 28.8691 55.9155 28.9573C56.1271 29.0454 56.3167 29.1792 56.4707 29.3489C56.5602 29.4272 56.5882 29.2036 56.5826 29.198C53.9882 23.2823 62.0341 23.6066 61.2513 27.7498H61.2234ZM67.3291 18.0153C67.2263 17.2878 66.9244 16.6028 66.4568 16.036C64.321 14.0902 59.8591 16.2373 62.09 20.5091C62.3383 20.9 62.6129 21.2736 62.9119 21.6273C63.4152 22.3542 63.6444 23.9813 63.7506 24.8591C63.7506 24.8813 63.7595 24.9027 63.7752 24.9184C63.7909 24.9341 63.8123 24.943 63.8345 24.943H65.4392C65.702 24.943 65.3553 22.9413 65.6852 22.0299C66.1661 20.6321 67.7037 19.6759 67.3291 18.0153ZM63.9184 15.5384C64.2871 15.4608 64.6679 15.4608 65.0366 15.5384C65.4208 16.5753 65.5902 17.6795 65.5345 18.7839C65.4787 19.8883 65.199 20.9698 64.7123 21.9628H64.2594C63.7732 20.97 63.4923 19.8893 63.4337 18.7854C63.3751 17.6814 63.54 16.5771 63.9184 15.5384ZM62.0788 20.0562C61.4135 18.3788 61.4023 16.9194 62.9063 15.9577C61.9894 17.1487 62.2074 20.3022 64.0246 21.9684C63.7674 21.9684 63.5158 21.8901 63.2586 21.8622C62.8271 21.286 62.433 20.6828 62.0788 20.0562ZM65.305 24.7976C64.9472 24.8367 64.6005 24.7976 64.2427 24.7976C63.8848 24.7976 63.9575 24.9933 63.773 23.8303C64.3157 23.9169 64.8686 23.9169 65.4113 23.8303C65.4201 24.1561 65.3843 24.4815 65.305 24.7976ZM65.4113 23.6793C64.8521 23.752 64.293 23.6793 63.7339 23.7352C63.6111 23.1239 63.4505 22.5207 63.253 21.9292C63.9928 22.1808 64.793 22.1925 65.5399 21.9628C65.4015 22.5257 65.358 23.1077 65.4113 23.6849V23.6793ZM65.6181 21.8062C65.4302 21.8255 65.2436 21.8554 65.059 21.8957C66.8594 20.1288 66.9433 17.0424 66.071 15.9354C66.9601 16.556 67.5304 18.5129 66.9936 19.5865C66.6022 20.3581 65.976 21.0011 65.6405 21.823L65.6181 21.8062ZM70.1807 25.9382C70.2981 26.2178 70.4043 24.4453 71.612 24.2944C71.6568 24.2944 71.6959 24.2496 71.6568 24.2105C71.4108 23.9701 70.723 23.9589 70.6391 22.4716C70.6391 22.4101 70.5217 22.3877 70.5217 22.4716C70.4882 24.149 68.4306 24.1993 68.8443 24.3223C69.8619 24.6019 70.0353 25.5972 70.1807 25.9382ZM70.5776 22.9245C70.5934 23.1829 70.6713 23.4337 70.8046 23.6556C70.938 23.8776 71.1229 24.0641 71.3437 24.1993C71.0694 24.3503 70.8288 24.5556 70.6365 24.8026C70.4443 25.0497 70.3044 25.3334 70.2254 25.6363C70.133 25.3447 69.983 25.0746 69.7842 24.8422C69.5853 24.6097 69.3418 24.4196 69.068 24.2832C69.4161 24.2077 69.7385 24.0426 70.0033 23.8043C70.268 23.5661 70.466 23.2628 70.5776 22.9245ZM77.5444 32.1446C77.4997 32.1446 77.5109 32.234 77.5444 32.2452C77.8587 32.3146 78.1403 32.4883 78.3433 32.7381C78.5463 32.9878 78.6589 33.2989 78.6627 33.6207C78.6627 33.6598 78.7466 33.671 78.7577 33.6207C78.7689 33.5704 78.7577 32.5024 79.4511 32.0887C79.4958 32.0887 79.5182 31.9657 79.4511 31.9713C78.6906 32.0831 78.2489 30.5678 78.2433 30.5455C78.2377 30.5231 78.1315 30.5119 78.1483 30.5455C78.212 30.8419 78.1889 31.1503 78.0819 31.434C77.9748 31.7176 77.7882 31.9643 77.5444 32.1446ZM78.3496 31.0263C78.5285 31.4736 78.8192 32.0328 79.2554 32.1054C78.9857 32.3652 78.8056 32.704 78.741 33.0727C78.5577 32.6692 78.2249 32.3524 77.8128 32.1893C78.1311 31.8757 78.3223 31.4555 78.3496 31.0096V31.0263ZM40.2895 23.6178V23.6681C40.5673 23.7191 40.823 23.8534 41.0228 24.0531C41.2225 24.2528 41.3568 24.5086 41.4077 24.7864C41.4114 24.7976 41.4185 24.8073 41.428 24.8142C41.4376 24.8211 41.4491 24.8249 41.4608 24.8249C41.4726 24.8249 41.4841 24.8211 41.4936 24.8142C41.5032 24.8073 41.5103 24.7976 41.514 24.7864C41.6705 24.2776 41.7767 23.7297 42.6322 23.6066C42.6658 23.6066 42.6769 23.534 42.6322 23.534C41.6202 23.4333 41.4245 22.1809 41.3854 22.0914C41.3462 22.0019 41.2903 22.0914 41.2959 22.0914C41.4469 23.0419 40.5914 23.4445 40.2895 23.6178ZM41.4524 22.589C41.5208 22.7986 41.6329 22.9912 41.7813 23.1541C41.9298 23.317 42.1112 23.4465 42.3135 23.534C42.1174 23.6194 41.9428 23.7476 41.8026 23.9092C41.6623 24.0707 41.5599 24.2615 41.5028 24.4677C41.4077 24.2539 41.2625 24.066 41.0796 23.9201C40.8966 23.7741 40.6812 23.6743 40.4516 23.629C40.6915 23.5521 40.9086 23.4168 41.0833 23.2353C41.2579 23.0538 41.3848 22.8317 41.4524 22.589ZM92.4453 43.9535C91.8862 42.03 91.8079 40.2408 91.5842 40.4645C90.8797 41.1634 89.3477 42.55 89.3477 42.5556C89.3477 42.5612 91.3885 43.5397 92.2999 44.0541C92.3223 44.0709 92.4621 44.0038 92.4453 43.9535ZM89.5658 42.5221C90.3122 41.9447 90.9996 41.2948 91.6178 40.5819C91.6827 41.6899 91.8952 42.7843 92.2496 43.836C91.3326 43.3496 90.4604 43.0533 89.5658 42.5221ZM87.1447 43.7186C86.9918 44.2697 86.8742 44.83 86.7925 45.396C86.7925 45.5134 86.949 45.5638 86.9714 45.4463C87.1178 44.8773 87.204 44.2945 87.2286 43.7074C87.2244 43.6991 87.2178 43.6923 87.2095 43.6879C87.2013 43.6835 87.1919 43.6819 87.1827 43.6831C87.1734 43.6843 87.1648 43.6884 87.158 43.6948C87.1512 43.7012 87.1466 43.7095 87.1447 43.7186ZM86.3508 47.845C86.5317 47.2982 86.6664 46.737 86.7533 46.1676C86.7533 46.0949 86.6527 46.0893 86.6303 46.1676C86.4508 46.7035 86.3162 47.2533 86.2277 47.8115C86.2285 47.8256 86.2336 47.8391 86.2425 47.8501C86.2514 47.8611 86.2635 47.8691 86.2771 47.8728C86.2907 47.8765 86.3052 47.8758 86.3184 47.8708C86.3316 47.8658 86.343 47.8568 86.3508 47.845ZM88.3692 46.4528C88.3901 46.4593 88.4127 46.458 88.4327 46.449C88.4527 46.44 88.4687 46.424 88.4776 46.404C88.4866 46.384 88.4879 46.3614 88.4813 46.3405C88.4747 46.3196 88.4607 46.3019 88.4419 46.2906C87.9997 46.0659 87.5238 45.9148 87.0329 45.8433C86.6247 45.8489 88.0897 46.408 88.3692 46.4528ZM86.2613 45.5302C85.7748 45.396 85.294 45.2227 84.8075 45.0941C84.7013 45.0941 84.3211 45.2003 86.2054 45.7371C86.2328 45.7445 86.2621 45.7407 86.2867 45.7266C86.3113 45.7124 86.3294 45.689 86.3368 45.6616C86.3442 45.6342 86.3404 45.6049 86.3262 45.5803C86.3121 45.5556 86.2887 45.5376 86.2613 45.5302ZM72.0985 52.7486C71.2989 53.1568 70.628 54.4931 70.9299 55.3598C70.9299 55.3598 70.9746 55.3989 70.9858 55.4045C72.3277 55.5387 80.491 55.5275 83.1861 55.4716C83.2053 55.4711 83.2241 55.4654 83.2403 55.455C83.2566 55.4447 83.2697 55.4301 83.2784 55.4129C83.287 55.3957 83.2907 55.3764 83.2893 55.3572C83.2878 55.338 83.2811 55.3195 83.2699 55.3038C83.3567 54.9288 83.3209 54.5359 83.168 54.1827C83.015 53.8295 82.7529 53.5346 82.4201 53.3413C82.0471 53.1993 81.648 53.1388 81.2497 53.1639C80.8514 53.1889 80.4631 53.299 80.1108 53.4867C80.4966 52.7989 80.1108 52.0385 79.6412 51.4458C79.082 50.719 78.467 50.02 77.4997 49.9529C76.6444 49.8381 75.7765 50.0367 75.0563 50.5121C74.3462 51.1048 74.4077 51.977 74.5307 52.7989C73.9939 52.0665 72.8198 52.3796 72.0985 52.7486ZM75.0787 50.7916C75.3707 50.5252 75.716 50.3237 76.0917 50.2006C76.4673 50.0774 76.8648 50.0353 77.258 50.077C77.6511 50.1187 78.0309 50.2434 78.3723 50.4427C78.7137 50.642 79.009 50.9115 79.2386 51.2334C79.753 51.8708 80.4575 52.7654 79.8369 53.5705C79.7642 53.6656 80.0102 53.6488 80.0158 53.6432C82.448 52.8772 83.0686 53.7103 83.1078 55.2647C80.4351 55.4157 71.612 55.2144 71.0026 55.3038C70.8292 52.648 73.7982 51.949 74.6202 53.1456C74.6537 53.1959 74.7264 53.1456 74.6761 53.0505C74.5978 52.3013 74.5083 51.3731 75.0787 50.7916ZM80.8992 60.241C80.9607 60.2018 80.8992 60.1068 80.8713 60.1236C79.9207 60.459 79.3672 59.1059 79.3281 59.05C79.2889 58.9941 79.2274 59.05 79.2442 59.0836C79.507 59.7433 79.4287 60.5205 78.685 60.8001C78.6752 60.8035 78.6666 60.81 78.6606 60.8185C78.6545 60.827 78.6513 60.8372 78.6513 60.8476C78.6513 60.8581 78.6545 60.8683 78.6606 60.8768C78.6666 60.8853 78.6752 60.8917 78.685 60.8952C78.999 60.8483 79.3195 60.9134 79.5904 61.079C79.8613 61.2446 80.0653 61.5001 80.1668 61.801C80.1668 61.868 80.3009 61.8569 80.2953 61.801C80.2898 61.745 80.1332 60.6883 80.8992 60.241ZM80.1444 61.4151C80.0192 61.2318 79.8529 61.0802 79.6587 60.9724C79.4646 60.8647 79.248 60.8037 79.0261 60.7945C79.2025 60.6551 79.3388 60.4714 79.4213 60.2623C79.5038 60.0531 79.5295 59.8259 79.4958 59.6036C79.6091 59.8041 79.7708 59.973 79.9661 60.0951C80.1614 60.2172 80.3842 60.2885 80.6141 60.3025C80.4665 60.448 80.3491 60.6211 80.2685 60.8121C80.1879 61.003 80.1457 61.2079 80.1444 61.4151ZM58.998 82.0024C60.2784 78.122 63.376 74.7337 66.7364 72.4971C66.8426 72.4245 66.7364 72.2567 66.6358 72.3238C59.669 76.959 58.5787 83.3108 58.998 82.0024ZM56.8733 78.0493C58.78 75.1362 60.6195 73.9677 63.6668 72.3406C63.7842 72.2791 63.6668 72.1058 63.5661 72.1673C60.9773 73.4589 58.1202 75.3319 56.8174 78.0158C56.8152 78.023 56.8154 78.0307 56.8181 78.0377C56.8208 78.0447 56.8257 78.0507 56.8322 78.0545C56.8386 78.0584 56.8462 78.06 56.8536 78.0591C56.8611 78.0581 56.868 78.0547 56.8733 78.0493ZM65.551 70.0034C65.8138 69.9699 65.5902 69.5841 63.2139 70.1264C58.1425 71.2447 56.9684 73.5819 57.2423 73.2799C59.6857 70.6073 63.2866 70.2942 65.551 70.0034ZM14.2786 59.5476C13.4847 59.967 12.864 59.3352 12.6516 58.6195C12.6516 58.5636 12.5341 58.5692 12.5397 58.6195C12.6851 60.3752 15.3689 60.3304 14.9775 58.0604C14.7017 56.9176 14.2327 55.8303 13.5909 54.8453C12.1763 52.4355 10.9238 51.5577 11.1754 51.8708C12.6292 53.6768 16.258 58.5077 14.2786 59.5476ZM20.8093 62.6564C21.1448 62.4495 20.9603 61.924 20.9938 61.6053C20.9938 61.527 20.8764 61.5158 20.8596 61.6053C20.8382 61.7685 20.8252 61.9327 20.8205 62.0973C20.7087 62.6564 20.1719 62.5055 19.7973 62.3265C19.2181 61.9873 18.729 61.5136 18.3715 60.9455C17.6502 59.9446 17.024 58.8655 16.3977 57.8088C12.4838 51.2837 12.2043 51.6918 12.2825 51.7869C14.2059 54.2862 15.6932 57.0316 17.3539 59.7042C17.9745 60.7106 18.651 61.9743 19.7861 62.4999C20.0489 62.6229 20.5297 62.8242 20.8093 62.6564ZM14.7427 53.537C14.7036 53.4867 14.6197 53.537 14.6533 53.6041C17.3427 57.4509 16.9121 56.1481 14.7427 53.537ZM8.70409 49.6734C7.50754 51.4794 9.5987 52.3181 9.5987 52.3181C9.44536 52.0939 9.38476 51.8191 9.42958 51.5512C9.4744 51.2833 9.62117 51.0432 9.83912 50.8811C9.99986 50.9913 10.168 51.0903 10.3423 51.1774C10.8663 50.9959 11.3343 50.6819 11.701 50.2661C11.641 50.0591 11.5605 49.8587 11.4606 49.6678C11.6943 49.512 11.9798 49.4541 12.2557 49.5063C12.5317 49.5586 12.7761 49.7169 12.9367 49.9474C12.9367 49.9474 12.9367 47.6214 10.7002 48.1749C8.20646 43.7969 4.30931 42.332 8.3071 49.0136C8.41334 49.2373 8.55312 49.4553 8.70409 49.6734ZM8.1785 45.2506C8.81032 45.9552 10.1075 46.6597 11.5724 50.1878C11.2 50.5312 10.7913 50.8331 10.3535 51.088C7.84861 48.4153 8.00517 47.8953 6.93723 46.1397L8.1785 45.2506ZM21.3293 35.4379C20.211 35.6056 18.4553 36.8245 18.8803 38.1497C18.5267 37.8639 18.0904 37.6998 17.6361 37.6817C17.1819 37.6635 16.7338 37.7924 16.3586 38.049C15.9017 38.3996 15.5697 38.8878 15.4116 39.4416C15.2535 39.9954 15.2778 40.5853 15.4808 41.1243H25.4948C26.4509 41.1243 26.7696 36.7742 23.4372 38.0938C23.5674 37.7742 23.6103 37.4258 23.5615 37.0842C23.5127 36.7426 23.3739 36.4201 23.1594 36.1498C22.9449 35.8795 22.6623 35.6711 22.3407 35.546C22.0191 35.4209 21.6701 35.3836 21.3293 35.4379ZM23.331 38.3118C25.0978 37.1936 26.8088 39.0778 25.5172 41.0124C25.5172 41.0124 16.1461 40.8782 15.6373 40.9789C14.7651 38.1832 17.7788 36.8301 19.0313 38.5075C19.0704 38.5634 19.0313 38.323 18.9865 38.2615C18.4665 36.4052 21.6256 34.616 22.9731 36.1088C23.8677 37.0929 23.0682 38.4851 23.331 38.3118ZM12.2825 23.2041C12.2492 23.261 12.229 23.3247 12.2232 23.3904C12.2174 23.4561 12.2262 23.5224 12.249 23.5843C12.0421 23.8135 12.3999 24.4733 12.9367 24.1099C13.8733 24.5006 14.8625 24.7512 15.8722 24.8535C15.587 25.7593 14.9328 28.1356 15.7491 28.6165C16.5655 29.0973 17.7005 26.3799 18.036 25.5692C18.2732 25.4874 18.4931 25.3623 18.6846 25.2002C20.1104 25.3176 23.2247 25.4182 22.2686 24.026C21.8828 23.4669 19.6743 23.0475 19.0033 22.9413C19.3779 21.7951 20.3844 18.362 18.7125 19.0274C18.0025 19.3013 17.3259 20.9675 16.8562 22.1361C16.5527 22.2064 16.2754 22.3616 16.0567 22.5834C15.1453 22.494 12.6572 22.3654 12.2825 23.2041ZM19.048 23.0699C19.6966 23.1705 21.9164 23.629 22.1512 24.0931C22.7886 25.312 20.1551 25.0883 18.8579 25.0157C19.1153 24.7666 19.2757 24.4341 19.3105 24.0777C19.3453 23.7213 19.2523 23.364 19.048 23.0699ZM18.7461 19.156C20.1104 18.759 19.227 21.5714 18.83 22.8406C18.6013 22.5871 18.3177 22.3893 18.0008 22.2623C17.6838 22.1353 17.3421 22.0826 17.0016 22.1082C17.2532 21.4875 18.1255 19.3237 18.7461 19.1448V19.156ZM17.8459 25.6419C16.2859 29.9137 14.6868 29.1756 16.0008 24.9318C16.1906 25.2329 16.4734 25.4641 16.8063 25.5902C17.1392 25.7163 17.5042 25.7305 17.8459 25.6307V25.6419ZM15.9728 22.7176C15.7757 23.0035 15.6597 23.3374 15.637 23.684C15.6144 24.0305 15.686 24.3767 15.8442 24.6858C15.8442 24.6858 13.5182 24.3223 13.0485 24.0036C13.2331 23.8303 13.1045 23.3494 12.4279 23.4445C12.3161 23.137 12.7634 22.9636 12.9591 22.8854C13.9416 22.625 14.9664 22.5642 15.9728 22.7064V22.7176ZM11.8129 16.1255C12.0798 16.2397 12.3142 16.4187 12.4947 16.6461C12.6753 16.8735 12.7965 17.1423 12.8473 17.4282C12.9982 17.7469 12.8473 16.1702 13.7363 16.1031C13.7754 16.1031 13.7978 16.036 13.7363 16.0136C13.3449 15.8123 12.8025 15.7508 12.4559 14.2076C12.4559 14.1182 12.2769 14.1629 12.3217 14.2468C12.6683 14.9177 11.8017 16.0472 11.7961 16.0472C11.7857 16.0494 11.7766 16.0557 11.7709 16.0646C11.7651 16.0735 11.7631 16.0843 11.7653 16.0947C11.7676 16.1051 11.7738 16.1142 11.7827 16.1199C11.7916 16.1257 11.8025 16.1277 11.8129 16.1255ZM12.5062 14.8618C12.5676 15.1171 12.684 15.3559 12.8472 15.5616C13.0104 15.7673 13.2165 15.9349 13.4511 16.0528C13.2804 16.1453 13.1351 16.2783 13.0278 16.4401C12.9206 16.602 12.8547 16.7877 12.8361 16.9809C12.7724 16.7549 12.6498 16.5498 12.4808 16.3867C12.3118 16.2236 12.1025 16.1084 11.8744 16.0528C12.2214 15.7447 12.4457 15.3219 12.5062 14.8618ZM11.7346 10.0645C12.7372 9.83611 13.7235 9.54098 14.6868 9.18104C15.2851 9.48297 12.9423 6.94451 12.0533 6.32946C12.0141 6.30151 11.9694 6.36301 11.9974 6.39656C11.824 7.5828 11.712 8.77721 11.6619 9.975C11.6619 9.975 11.7122 10.0645 11.7346 10.0645ZM12.0589 6.45247C13.9487 8.34793 13.8369 8.43739 14.5526 9.06362C13.6356 9.35996 12.7298 9.74576 11.7961 9.96941C11.8632 8.78964 11.9471 7.61547 12.0589 6.44688V6.45247ZM11.5445 39.4748C11.5541 39.4867 11.5681 39.4942 11.5833 39.4958C11.5985 39.4974 11.6137 39.4928 11.6256 39.4832C11.6374 39.4736 11.645 39.4596 11.6465 39.4444C11.6481 39.4292 11.6436 39.414 11.6339 39.4021C11.5854 39.1245 11.6076 38.8391 11.6985 38.5723C11.7894 38.3055 11.946 38.0659 12.1539 37.8757C12.221 37.8142 12.1539 37.6856 12.0924 37.7303C11.1755 38.2391 10.5324 37.2103 10.5213 37.1712C10.5101 37.132 10.4038 37.1712 10.4262 37.2103C10.8567 38.3286 10.2026 38.7479 9.9174 38.8877C9.88945 38.8877 9.9174 38.9548 9.9174 38.9436C10.2058 38.8119 10.5332 38.7934 10.8346 38.8918C11.136 38.9902 11.3894 39.1983 11.5445 39.4748ZM10.6443 37.5514C10.8004 37.7266 10.9999 37.8576 11.2227 37.9312C11.4455 38.0048 11.6838 38.0184 11.9135 37.9707C11.6179 38.2987 11.4563 38.7258 11.4606 39.1673C11.3269 39.0207 11.1605 38.9079 10.9749 38.8379C10.7893 38.768 10.5898 38.7429 10.3927 38.7647C10.5348 38.6008 10.6325 38.4033 10.6766 38.1908C10.7206 37.9784 10.7095 37.7583 10.6443 37.5514ZM18.4889 50.1878C18.4609 50.1878 18.4889 50.2437 18.4889 50.2437C18.7676 50.1026 19.0899 50.0745 19.3888 50.1651C19.6877 50.2557 19.9402 50.4581 20.0936 50.7301C20.1327 50.7861 20.211 50.7301 20.1831 50.6575C20.1419 50.38 20.1677 50.0967 20.2581 49.8312C20.3486 49.5657 20.5011 49.3257 20.7031 49.131C20.7646 49.0695 20.7031 48.9521 20.6416 48.9856C20.5021 49.0543 20.3502 49.0943 20.195 49.1033C20.0398 49.1123 19.8843 49.0901 19.7379 49.038C19.5914 48.9858 19.4568 48.9049 19.3422 48.7998C19.2276 48.6948 19.1351 48.5679 19.0704 48.4265C19.0704 48.3762 18.953 48.4265 18.9753 48.4657C19.445 49.5839 18.7796 50.02 18.4889 50.1878ZM19.2158 48.8067C19.3719 48.9819 19.5714 49.1129 19.7942 49.1865C20.017 49.2601 20.2552 49.2738 20.485 49.2261C20.2181 49.5695 20.0656 49.988 20.0489 50.4226C19.9175 50.2731 19.7514 50.1581 19.5652 50.0879C19.379 50.0177 19.1783 49.9944 18.9809 50.02C19.1202 49.8546 19.2149 49.6562 19.256 49.4439C19.2971 49.2315 19.2832 49.0122 19.2158 48.8067ZM8.45248 56.6961C8.46212 56.7079 8.47607 56.7155 8.49128 56.7171C8.50648 56.7186 8.52169 56.7141 8.53355 56.7045C8.54541 56.6948 8.55296 56.6809 8.55454 56.6657C8.55611 56.6505 8.55158 56.6353 8.54194 56.6234C8.42452 56.0251 8.54194 55.7791 9.07311 55.1081C9.12903 55.041 9.07311 54.9292 9.01161 54.9628C8.872 55.0331 8.71959 55.0745 8.56355 55.0844C8.40752 55.0942 8.25111 55.0724 8.10376 55.0201C7.95641 54.9679 7.82117 54.8863 7.7062 54.7803C7.59124 54.6744 7.49893 54.5462 7.43486 54.4036C7.43486 54.3533 7.32303 54.4036 7.34539 54.4428C7.43033 54.5866 7.48465 54.7465 7.50493 54.9123C7.52521 55.0782 7.51102 55.2464 7.46325 55.4065C7.41548 55.5666 7.33517 55.7151 7.22733 55.8427C7.1195 55.9704 6.98647 56.0743 6.83658 56.1481V56.204C7.11807 56.0656 7.44166 56.0395 7.74173 56.1308C8.0418 56.2222 8.29589 56.4243 8.45248 56.6961ZM7.55787 54.795C7.71312 54.9697 7.91164 55.1005 8.13347 55.1741C8.3553 55.2477 8.5926 55.2616 8.8215 55.2144C8.67073 55.3752 8.55313 55.5641 8.47542 55.7704C8.3977 55.9766 8.36141 56.1962 8.36861 56.4165C8.23607 56.2698 8.0708 56.1563 7.88622 56.0854C7.70165 56.0145 7.50295 55.9881 7.30626 56.0083C7.44745 55.8439 7.5446 55.6464 7.58861 55.4341C7.63262 55.2219 7.62204 55.002 7.55787 54.795ZM12.6124 72.2288C14.0228 72.6806 15.313 73.4451 16.3866 74.4653C17.3606 75.4782 18.2736 76.548 19.1207 77.6691C19.1766 77.7362 19.2773 77.6691 19.2325 77.5852C17.8235 75.1307 15.3969 72.8885 12.6236 72.184C12.5956 72.1784 12.5901 72.2232 12.6124 72.2288ZM19.0704 73.5539C19.1319 73.5875 19.2046 73.498 19.1487 73.4533C18.133 72.493 16.814 71.9176 15.4193 71.8262C15.3578 71.8262 15.3578 71.9212 15.4193 71.9268C16.8395 72.0275 17.9186 72.8159 19.0704 73.5539ZM19.294 71.2391C18.2988 70.541 17.1423 70.1075 15.9333 69.9793C14.7244 69.8512 13.5027 70.0327 12.3832 70.5066C12.344 70.5066 12.3832 70.5905 12.3832 70.5793C13.5076 70.1972 14.7021 70.0663 15.8826 70.1958C17.0631 70.3252 18.2009 70.7119 19.2158 71.3286C19.2276 71.3389 19.2431 71.3442 19.2589 71.3431C19.2746 71.3421 19.2893 71.3348 19.2996 71.323C19.31 71.3111 19.3153 71.2956 19.3142 71.2799C19.3132 71.2641 19.3059 71.2495 19.294 71.2391ZM76.0739 85.1447C75.7496 85.9163 75.0507 87.4316 75.0451 87.4427C74.3448 89.9138 73.7958 92.4252 73.4013 94.9631C73.4013 94.9631 74.5195 95.17 74.5195 95.1588C75.2911 92.665 75.7161 90.0483 76.4094 87.5434C76.4094 87.5434 76.1634 85.1839 76.169 85.1727C76.1745 85.1615 76.0907 85.0944 76.0739 85.1447ZM76.1242 85.2901C76.1131 85.4539 76.1131 85.6183 76.1242 85.7821H75.9453C76.0236 85.5976 76.0739 85.441 76.1242 85.2901ZM73.4683 94.8736C73.7926 93.5093 74.9668 88.589 75.1457 87.4987C75.1457 87.4987 75.4924 87.4595 75.6657 87.4595C74.978 89.9085 73.9324 94.9239 73.9324 94.9295C73.7804 94.8929 73.6247 94.8741 73.4683 94.8736ZM74.4748 95.019L74.0331 94.9463C74.5922 92.4582 75.7496 87.4595 75.7496 87.4539C75.9405 87.477 76.1281 87.522 76.3087 87.5881C75.8335 88.7176 74.7823 93.733 74.4748 95.019ZM75.1402 87.3868C75.4363 86.9112 75.6925 86.4119 75.9062 85.8939C75.9875 85.9214 76.0721 85.9383 76.1578 85.9443C76.1578 86.0281 76.2472 87.0625 76.292 87.4651C75.912 87.3972 75.5258 87.3709 75.1402 87.3868ZM74.3741 95.2203C74.0396 95.1525 73.7019 95.1021 73.3621 95.0693C73.323 95.0693 73.3006 95.1252 73.3621 95.1476C73.6833 95.2623 74.0177 95.3356 74.3574 95.3656C74.4301 95.388 74.4692 95.237 74.3741 95.2203ZM73.295 95.4383C73.5578 95.6676 73.9604 95.5613 74.2623 95.6899C74.2725 95.6968 74.284 95.7013 74.2961 95.7032C74.3082 95.7051 74.3206 95.7043 74.3323 95.701C74.3441 95.6976 74.355 95.6917 74.3642 95.6836C74.3735 95.6756 74.3808 95.6656 74.3858 95.6544C74.3908 95.6432 74.3932 95.6311 74.393 95.6188C74.3928 95.6066 74.3899 95.5946 74.3845 95.5836C74.3791 95.5726 74.3714 95.5629 74.3619 95.5552C74.3524 95.5475 74.3413 95.5419 74.3294 95.539C74.1617 95.4831 73.1664 95.3041 73.295 95.4383ZM82.7611 90.6969C82.4498 90.6299 82.1248 90.6772 81.8455 90.8301C81.5662 90.9831 81.3514 91.2316 81.2403 91.53C80.7762 93.2074 83.365 93.8672 83.7228 92.2066C83.793 91.879 83.7314 91.537 83.5515 91.2546C83.3715 90.9721 83.0876 90.7717 82.7611 90.6969ZM81.4528 91.3455C81.71 90.7863 82.571 90.7528 82.7332 90.7863C82.9948 90.8689 83.2206 91.0377 83.374 91.2652C83.5273 91.4926 83.599 91.7653 83.5775 92.0388C83.4712 93.7889 80.6812 92.9837 81.4528 91.3455ZM87.8884 94.3983C87.9499 93.3975 87.6983 92.6035 87.6535 92.9278C87.5957 93.4275 87.6165 93.9331 87.715 94.4263C87.7374 94.5214 87.8828 94.4934 87.8884 94.3983ZM87.8716 96.9536C87.8716 97.0598 88.0561 97.0319 88.0561 96.9256C88.0595 96.4658 88.0164 96.0069 87.9275 95.5557C87.7654 95.1532 87.8045 96.5119 87.8716 96.9536ZM89.4372 94.594C87.2006 94.9575 87.9778 95.0637 89.4931 94.7953C89.6273 94.773 89.5658 94.5717 89.4372 94.594ZM87.4858 94.9407C87.0418 94.9469 86.5988 94.9861 86.1606 95.0581C86.1508 95.0616 86.1422 95.068 86.1362 95.0765C86.1301 95.085 86.1269 95.0952 86.1269 95.1057C86.1269 95.1161 86.1301 95.1263 86.1362 95.1348C86.1422 95.1433 86.1508 95.1497 86.1606 95.1532C86.6101 95.2151 87.0671 95.1924 87.5081 95.0861C87.5177 95.0846 87.5269 95.0813 87.5351 95.0763C87.5434 95.0713 87.5506 95.0647 87.5563 95.0569C87.562 95.0491 87.5661 95.0403 87.5684 95.0309C87.5707 95.0215 87.5711 95.0118 87.5697 95.0022C87.5682 94.9927 87.5648 94.9835 87.5598 94.9752C87.5548 94.967 87.5482 94.9598 87.5405 94.9541C87.5327 94.9484 87.5238 94.9443 87.5145 94.942C87.5051 94.9397 87.4953 94.9392 87.4858 94.9407Z" fill="black"/>
<path d="M9.50372 49.1143C9.51523 49.2108 9.5617 49.2997 9.63435 49.3642C9.70699 49.4286 9.80076 49.4643 9.89791 49.4643C9.99505 49.4643 10.0888 49.4286 10.1615 49.3642C10.2341 49.2997 10.2806 49.2108 10.2921 49.1143C10.2921 48.8962 9.50372 48.5887 9.50372 49.1143ZM8.64266 47.7724C8.65425 47.8703 8.70136 47.9605 8.77504 48.026C8.84872 48.0914 8.94387 48.1276 9.04243 48.1276C9.141 48.1276 9.23615 48.0914 9.30983 48.026C9.38351 47.9605 9.43062 47.8703 9.44221 47.7724C9.43062 47.6745 9.38351 47.5843 9.30983 47.5188C9.23615 47.4533 9.141 47.4172 9.04243 47.4172C8.94387 47.4172 8.84872 47.4533 8.77504 47.5188C8.70136 47.5843 8.65425 47.6745 8.64266 47.7724ZM7.6474 46.5255C7.6474 46.6308 7.68922 46.7318 7.76367 46.8062C7.83812 46.8807 7.9391 46.9225 8.04438 46.9225C8.14967 46.9225 8.25064 46.8807 8.32509 46.8062C8.39954 46.7318 8.44137 46.6308 8.44137 46.5255C8.44137 46.3075 7.6474 45.9999 7.6474 46.5255ZM35.3692 38.994C35.4656 38.994 35.558 38.9557 35.6262 38.8876C35.6943 38.8194 35.7326 38.727 35.7326 38.6306C35.7326 38.5342 35.6943 38.4418 35.6262 38.3736C35.558 38.3054 35.4656 38.2672 35.3692 38.2672C35.1455 38.2672 34.8883 38.994 35.3692 38.994ZM38.3102 40.3527C38.3164 40.3039 38.3122 40.2543 38.2978 40.2072C38.2834 40.1601 38.2591 40.1167 38.2265 40.0797C38.194 40.0428 38.154 40.0132 38.1091 39.9929C38.0642 39.9726 38.0156 39.9621 37.9663 39.9621C37.9171 39.9621 37.8684 39.9726 37.8236 39.9929C37.7787 40.0132 37.7387 40.0428 37.7061 40.0797C37.6736 40.1167 37.6493 40.1601 37.6349 40.2072C37.6205 40.2543 37.6162 40.3039 37.6225 40.3527C37.6225 40.5596 38.3102 40.8168 38.3102 40.3527Z" fill="black"/>
</svg>
