<svg width="107" height="91" viewBox="0 0 107 91" fill="none" xmlns="http://www.w3.org/2000/svg">
<path d="M106.782 72.0401C106.75 71.8981 106.632 71.8466 106.503 71.7605C106.503 71.7605 106.788 65.2981 106.788 65.2248C106.788 62.8021 103.321 60.7317 98.3656 60.0808C98.6064 59.9834 98.8145 59.8196 98.9659 59.6086C99.1174 59.3976 99.2058 59.148 99.2211 58.8888C99.2712 58.8781 99.3174 58.8539 99.3547 58.8188C99.3919 58.7837 99.4188 58.7391 99.4325 58.6897C101.195 52.2983 102.543 46.5398 101.171 40.7908C99.7925 34.8595 95.4883 28.4742 90.7022 25.262C85.8523 22.1421 80.0129 20.944 74.3263 21.9022C74.2861 21.8066 74.2475 21.7098 74.2095 21.6103C74.7256 21.6621 75.2429 21.5232 75.6638 21.2199C76.0846 20.9165 76.3799 20.4697 76.4941 19.9637C76.6009 19.3648 76.3711 19.4822 76.6462 19.4604C77.3723 19.3227 78.015 18.9048 78.4354 18.2969C78.8681 17.575 78.715 16.1576 77.912 15.7249C78.0905 15.4426 78.2315 15.1383 78.3314 14.8196C78.7485 13.4515 77.7913 13.0662 76.928 12.5641C75.7577 11.92 76.0512 9.69855 75.4463 8.4215C74.319 5.88639 71.5172 3.41335 68.9883 4.35829C67.5281 3.71535 65.9095 3.52185 64.3389 3.80247C62.7683 4.08309 61.3169 4.82512 60.1697 5.93392C58.9736 7.13617 58.0686 8.59618 57.5238 10.2022C56.979 11.8081 56.809 13.5175 57.0268 15.1993C57.2447 16.1818 57.3329 17.1886 57.289 18.194C57.2303 18.9595 56.5621 19.6125 56.4268 20.492C56.3513 20.7806 56.3561 21.0843 56.4409 21.3702C56.5256 21.6562 56.687 21.9135 56.9076 22.1142C57.1282 22.315 57.3995 22.4515 57.6921 22.5091C57.9848 22.5666 58.2876 22.5429 58.5677 22.4406C58.6053 22.8283 58.7469 23.1987 58.9776 23.5125C59.2083 23.8264 59.5195 24.0721 59.8783 24.2237C60.2422 24.3564 60.6366 24.3814 61.0142 24.2956C61.3919 24.2099 61.7368 24.0169 62.0075 23.74C62.1993 23.9849 62.7238 24.3965 62.9989 24.3691C63.2618 24.4169 63.5332 24.3646 63.7595 24.2225C63.9858 24.0803 64.1507 23.8585 64.2217 23.6008C64.753 23.9846 65.3627 24.2459 66.007 24.3662C66.6514 24.4865 67.3143 24.4626 67.9483 24.2964V24.3137C55.8917 27.5522 51.0273 38.8031 50.0527 39.8274C49.8283 39.9796 49.5709 40.0763 49.3018 40.1097C46.4502 40.6325 44.0549 42.6113 41.9403 44.3592C39.4801 46.3933 39.238 46.3765 39.1558 46.5342C37.21 45.8302 35.8759 46.4089 35.1574 47.5227C33.4549 47.6429 32.9936 50.1221 32.5888 51.804C32.354 52.7791 32.0246 54.2133 32.3048 55.1733C32.2617 55.2292 32.2421 55.2762 29.8121 59.4507C29.4655 59.3355 29.1138 59.2378 28.7571 59.1577C28.5451 59.074 28.3185 59.0333 28.0907 59.0379C27.8628 59.0425 27.6381 59.0924 27.4297 59.1845C26.9774 59.4467 26.6354 59.8638 26.4669 60.3587C26.2874 60.7177 26.1006 61.1454 25.8898 61.6839C25.7318 59.7095 25.6998 57.7271 25.7942 55.7487C25.9541 51.4366 25.7193 47.038 25.5348 42.7466C27.658 40.5933 29.5607 38.2333 31.2144 35.7015C31.2517 35.7175 31.2919 35.7251 31.3323 35.7239C31.3728 35.7228 31.4125 35.7128 31.4487 35.6948C32.6196 35.0933 33.758 34.4308 34.8594 33.7099C35.7239 33.9042 36.6221 33.8913 37.4806 33.6725C37.7004 34.6789 38.7616 35.1681 39.621 35.5651C39.6649 35.5853 39.7133 35.5938 39.7615 35.5897C39.8097 35.5856 39.8559 35.5691 39.8958 35.5418C39.9357 35.5145 39.9678 35.4773 39.989 35.4338C40.0102 35.3904 40.0198 35.3422 40.0169 35.2939C39.9982 34.8397 39.8446 34.4013 39.5757 34.0348C39.3068 33.6682 38.9348 33.39 38.5072 33.2358C38.661 33.1474 38.8075 33.0535 38.9461 32.9562C38.994 32.9801 39.0478 32.9898 39.101 32.984C39.1542 32.9783 39.2047 32.9574 39.2464 32.9238C39.6305 32.6146 41.8776 34.1013 44.2517 33.4578C44.401 33.4169 45.1016 33.2156 45.1916 33.3403C45.2355 33.398 45.3 33.4364 45.3717 33.4474C45.4433 33.4584 45.5164 33.4412 45.5755 33.3993C45.6347 33.3575 45.6753 33.2943 45.6888 33.2231C45.7023 33.152 45.6876 33.0783 45.6479 33.0177C44.8986 31.8995 42.6062 30.9025 40.3848 31.668C40.9378 31.2219 41.3783 30.6521 41.6708 30.0046C41.9473 29.319 42.1533 28.6071 42.2858 27.8799C42.2955 27.8242 42.2881 27.767 42.2646 27.7156C42.2411 27.6643 42.2026 27.6213 42.1542 27.5922C42.1058 27.5632 42.0497 27.5495 41.9934 27.5529C41.937 27.5563 41.883 27.5768 41.8385 27.6115C41.0161 28.2308 40.2437 28.9137 39.5282 29.654C39.2014 30.044 38.955 30.4948 38.8032 30.9805C38.6514 31.4662 38.5972 31.977 38.6436 32.4837C38.3334 32.7045 38.0007 32.8919 37.6512 33.0429C36.9586 33.2698 36.2245 33.3408 35.5013 33.2509C36.5077 32.472 37.5505 31.4466 37.8737 30.1197C38.1623 29.7528 38.4239 29.3654 38.6565 28.9607C39.1804 27.9117 39.3084 26.0274 39.219 24.8745C39.2151 24.826 39.1987 24.7793 39.1712 24.7391C39.1438 24.6989 39.1064 24.6665 39.0626 24.6452C39.0188 24.6239 38.9702 24.6144 38.9217 24.6177C38.8731 24.6209 38.8262 24.6368 38.7856 24.6637C37.9457 25.2347 37.3016 26.05 36.9405 26.9992C36.937 27.0086 36.934 27.0181 36.9316 27.0277C36.6352 28.114 36.7357 29.2703 37.215 30.2892C37.219 30.2975 37.2235 30.3055 37.2285 30.3132C36.5189 32.2791 33.4851 33.9984 31.6444 34.968C34.9802 28.9774 32.8287 26.5391 35.1569 19.9665C36.2356 19.6062 37.2439 19.062 38.1371 18.3578C39.1044 18.364 39.9028 18.6972 40.9109 18.6296C41.9271 18.5082 42.8935 18.1214 43.7127 17.508C43.7474 17.4819 43.7756 17.4481 43.795 17.4093C43.8144 17.3705 43.8245 17.3277 43.8245 17.2843C43.8245 16.7582 41.3057 16.2952 39.8105 16.752C40.5907 15.8227 41.2086 14.7685 41.6383 13.6337C42.0534 13.6819 42.4733 13.6006 42.8405 13.4011C43.1117 13.2994 43.3834 13.1808 43.6546 13.0617C44.4506 12.798 45.1961 12.4009 45.8592 11.8876C45.9005 11.8533 45.931 11.8079 45.9471 11.7567C45.9633 11.7056 45.9644 11.6509 45.9503 11.5991C45.9362 11.5474 45.9075 11.5008 45.8677 11.4649C45.8279 11.429 45.7785 11.4053 45.7256 11.3966C44.6624 11.2198 43.5706 11.3862 42.6084 11.8719C42.6778 11.6189 42.7 11.3552 42.6739 11.0942C42.6296 10.7526 42.6296 10.4069 42.6739 10.0653C42.6989 10.0383 42.7184 10.0066 42.7313 9.97207C42.7441 9.93751 42.75 9.90076 42.7486 9.86392C42.7472 9.82709 42.7386 9.79088 42.7232 9.75738C42.7079 9.72387 42.6861 9.69372 42.659 9.66864C42.632 9.64357 42.6003 9.62406 42.5658 9.61123C42.5312 9.59841 42.4944 9.59251 42.4576 9.59389C42.4208 9.59527 42.3846 9.60389 42.3511 9.61925C42.3176 9.63462 42.2874 9.65644 42.2623 9.68346C41.3588 10.4757 40.5178 12.0173 41.1922 13.2272C40.7092 14.5876 39.9437 15.8303 38.9461 16.8737C37.9485 17.9171 36.7414 18.7375 35.404 19.281C36.7403 15.7411 38.6123 12.3388 39.3739 8.60937C40.7655 8.53333 41.0714 7.1696 41.6227 6.50871C41.6593 6.46327 41.6808 6.40751 41.6842 6.34924C41.6875 6.29098 41.6725 6.23312 41.6413 6.1838C41.6101 6.13447 41.5643 6.09615 41.5102 6.0742C41.4561 6.05225 41.3965 6.04777 41.3398 6.0614C40.6859 6.18742 40.0986 6.54322 39.6842 7.06448C39.6842 6.21852 39.1944 6.10222 38.6727 4.18887C38.657 4.13091 38.623 4.07956 38.5759 4.0424C38.5287 4.00525 38.4708 3.98427 38.4108 3.98258C38.3507 3.98089 38.2918 3.99856 38.2426 4.033C38.1934 4.06743 38.1566 4.11679 38.1376 4.17377C37.9242 4.83542 37.8517 5.53441 37.9246 6.22579C38.0023 6.95104 38.3454 7.62196 38.888 8.1095C38.5147 9.47899 38.0358 10.8175 37.4555 12.1129C37.2514 11.3441 37.1695 10.5481 37.2128 9.75391C37.2171 9.68001 37.1919 9.60743 37.1427 9.55209C37.0936 9.49674 37.0245 9.46315 36.9506 9.45869C36.9139 9.4565 36.8771 9.46156 36.8424 9.47358C36.8077 9.4856 36.7757 9.50435 36.7482 9.52876C36.7207 9.55317 36.6983 9.58275 36.6823 9.61582C36.6663 9.64889 36.6569 9.68479 36.6548 9.72148C36.598 10.7988 36.7514 11.877 37.1066 12.8957C35.5751 16.27 33.692 19.6366 33.0523 23.3816C32.9002 24.3322 32.8326 25.3123 32.7448 26.2662C31.5829 24.6743 30.8353 22.8183 30.5692 20.8655C31.1232 20.5954 31.5848 20.1674 31.896 19.6354C31.9396 19.5656 32.241 18.5122 32.3758 18.2969C32.4233 18.2563 32.4559 18.201 32.4683 18.1397C32.4807 18.0785 32.4722 18.0148 32.4442 17.959C32.4162 17.9031 32.3703 17.8582 32.3138 17.8315C32.2573 17.8048 32.1935 17.7978 32.1325 17.8116C31.8027 17.8932 31.4927 18.0407 31.2213 18.2452C30.9498 18.4496 30.7225 18.7069 30.553 19.0014C30.3648 19.3638 30.2106 19.7428 30.0923 20.1336C29.7099 19.2943 29.2252 18.5056 28.6491 17.7853C28.6293 17.7298 28.5925 17.682 28.5439 17.6487C28.4953 17.6153 28.4374 17.5982 28.3785 17.5998C28.3196 17.6013 28.2627 17.6215 28.2159 17.6573C28.1691 17.6931 28.1348 17.7428 28.118 17.7993C27.9438 18.3514 27.9477 18.9444 28.1292 19.4943C28.3108 20.0441 28.6607 20.5229 29.1294 20.8627C28.5852 20.6274 28.0167 20.4528 27.4342 20.3422C27.3784 20.3321 27.321 20.3391 27.2694 20.3624C27.2177 20.3857 27.1744 20.424 27.1451 20.4725C26.9813 20.7425 27.3279 20.9198 27.5851 21.3671C27.888 21.8307 28.3094 22.2048 28.8056 22.4506C29.3018 22.6964 29.8547 22.8049 30.4071 22.7649C30.8624 24.3349 31.6291 25.7972 32.6615 27.0646C32.0805 32.108 29.314 36.1964 25.3844 39.2861C25.1121 32.912 24.9041 26.3948 25.4912 19.9916C29.0008 17.1445 30.3785 11.7332 30.34 7.20203C30.8655 6.83209 31.3124 6.36153 31.6547 5.81762C31.9971 5.27371 32.2281 4.66727 32.3344 4.03343C32.3425 3.98162 32.3359 3.92856 32.3153 3.88032C32.2948 3.83208 32.261 3.7906 32.218 3.76063C32.1749 3.73065 32.1243 3.71339 32.072 3.71081C32.0196 3.70823 31.9675 3.72044 31.9217 3.74604C30.4445 4.57691 29.6852 5.64708 29.7579 6.77429C29.5687 6.22846 29.2893 5.71818 28.9315 5.26464C28.7325 5.01683 28.5541 4.75316 28.3981 4.47626C28.4024 4.40853 28.382 4.34153 28.3405 4.28777C28.2991 4.23401 28.2396 4.19715 28.173 4.18408C28.1063 4.17101 28.0373 4.18261 27.9786 4.21672C27.9199 4.25083 27.8757 4.30512 27.8541 4.36947C27.5678 5.20597 27.5678 6.11392 27.8541 6.95042C27.8592 6.96608 27.8657 6.98124 27.8736 6.99571C28.3011 7.7811 28.9473 8.42556 29.7339 8.85091C29.6612 9.97922 29.4946 11.0995 29.2357 12.2001C28.1329 10.4316 27.3286 8.49364 26.8549 6.46398C26.847 6.42765 26.832 6.39325 26.8107 6.3628C26.7894 6.33234 26.7623 6.30644 26.7308 6.28661C26.6994 6.26677 26.6643 6.2534 26.6277 6.24729C26.591 6.24117 26.5535 6.24242 26.5173 6.25097C26.4812 6.25952 26.4471 6.27519 26.417 6.29708C26.387 6.31896 26.3616 6.34662 26.3424 6.37843C26.3231 6.41024 26.3105 6.44556 26.305 6.48233C26.2996 6.5191 26.3016 6.55658 26.3109 6.59258C26.3638 6.81623 26.4197 7.03988 26.4786 7.26354C26.0256 6.97715 25.639 6.59728 25.3447 6.14937C25.0504 5.70146 24.8552 5.19584 24.7721 4.66637C25.116 4.5628 25.4349 4.3893 25.7086 4.15675C25.9823 3.9242 26.2051 3.63761 26.3629 3.31495C26.694 2.65695 26.9681 1.97174 27.182 1.26684C27.1982 1.21258 27.1975 1.15468 27.1801 1.1008C27.1627 1.04691 27.1293 0.999596 27.0844 0.965105C27.0395 0.930615 26.9851 0.910578 26.9286 0.907649C26.872 0.904719 26.8159 0.919034 26.7677 0.948699C25.8824 1.50554 25.1212 2.23846 24.5311 3.10192C24.2929 1.86623 23.8876 1.86679 23.3709 0.487414C23.3504 0.432642 23.3132 0.385701 23.2645 0.353203C23.2159 0.320704 23.1582 0.304287 23.0998 0.306262C23.0413 0.308238 22.9849 0.328508 22.9386 0.364216C22.8922 0.399924 22.8583 0.449271 22.8414 0.505306C22.6384 1.20064 22.6132 1.93583 22.7682 2.64343C23.0022 3.40645 23.497 4.06294 24.166 4.49807C24.2434 5.07424 24.4209 5.63245 24.6905 6.14751C23.8151 5.97886 22.9083 6.15022 22.1548 6.62668C22.1168 6.65105 22.0853 6.68425 22.0629 6.72346C22.0405 6.76267 22.028 6.80671 22.0263 6.85182C22.0247 6.89693 22.034 6.94177 22.0535 6.9825C22.0729 7.02324 22.1019 7.05866 22.1381 7.08573C22.4624 7.32965 22.8556 7.46469 23.2613 7.47153C23.9837 7.51867 24.7059 7.37907 25.3587 7.06616C25.7417 7.46591 26.197 7.7894 26.7006 8.01948C27.2435 9.76103 28.0326 11.416 29.0439 12.9343C28.3819 15.3145 27.3799 17.5331 25.5661 19.1881C25.6805 18.0721 25.8214 16.96 25.9888 15.8518C26 15.781 25.9837 15.7086 25.9431 15.6496C25.9025 15.5905 25.8407 15.5493 25.7706 15.5344C25.7005 15.5196 25.6274 15.5322 25.5663 15.5697C25.5053 15.6073 25.4609 15.6668 25.4425 15.7361C24.4077 19.6835 23.7632 23.7231 23.5185 27.7965C21.3329 26.865 19.7796 24.0123 19.1724 22.3439C19.074 22.0084 19.0919 22.0951 19.1098 22.0201C19.9957 18.3678 20.3133 14.6006 20.0514 10.8515C20.0461 10.7773 20.0116 10.7083 19.9555 10.6596C19.8993 10.6109 19.8261 10.5865 19.752 10.5918C19.6778 10.597 19.6088 10.6315 19.5601 10.6877C19.5114 10.7438 19.487 10.817 19.4922 10.8912C19.7289 14.2377 19.4923 17.6008 18.7894 20.8812C18.6465 20.2559 18.5542 19.6202 18.5132 18.9801L17.8422 13.7718C17.84 13.6977 17.8084 13.6275 17.7544 13.5766C17.7004 13.5258 17.6284 13.4984 17.5543 13.5007C17.4801 13.5029 17.4099 13.5345 17.3591 13.5885C17.3082 13.6425 17.2809 13.7145 17.2831 13.7886C17.2429 14.3964 17.23 14.9628 17.2456 15.499C16.4977 14.6565 15.9319 13.6685 15.5839 12.597C15.2359 11.5256 15.1131 10.3937 15.2233 9.2725C15.2363 9.2606 15.2479 9.24729 15.2579 9.2328C15.8305 9.27361 16.3292 8.48356 16.3851 8.44275C16.9416 7.75967 17.4013 7.00312 17.7511 6.19448C17.7839 6.12774 17.7888 6.05073 17.7648 5.98037C17.7408 5.91001 17.6898 5.85207 17.6231 5.8193C17.5563 5.78653 17.4793 5.7816 17.409 5.80562C17.3386 5.82963 17.2807 5.88061 17.2479 5.94734C16.997 6.1204 16.7289 6.26694 16.4478 6.38458C15.916 6.66676 15.4746 7.09309 15.1741 7.61467C14.9932 6.35924 14.5731 5.15017 13.9367 4.053C13.91 4.00736 13.8709 3.97023 13.8239 3.94593C13.7769 3.92164 13.724 3.91116 13.6713 3.91573C13.6186 3.9203 13.5683 3.93972 13.5262 3.97173C13.4841 4.00375 13.452 4.04705 13.4335 4.09661C13.1331 4.93665 13.0802 5.84525 13.281 6.71449C13.4818 7.58372 13.9279 8.37704 14.5663 9.0002C14.5988 9.03249 14.6387 9.0563 14.6826 9.06953C14.5286 10.4035 14.6849 11.7549 15.1393 13.0185C15.5937 14.282 16.3339 15.4235 17.3021 16.3539C17.8719 22.5631 17.8422 24.9282 23.3883 30.061C23.2205 33.7904 23.2507 37.5366 23.3212 41.2437C21.6619 40.0854 20.069 38.8346 18.5501 37.4975C16.8867 36.1261 15.4217 34.5304 14.1973 32.756C12.9157 30.855 12.19 28.6414 11.5364 26.4446C11.5806 26.4083 11.6126 26.3593 11.628 26.3042C12.2163 24.1304 12.1993 21.8372 11.5788 19.6724C11.8981 19.5672 12.1492 19.1401 12.4175 18.6374C12.8523 17.7612 13.0661 16.7921 13.0404 15.8143C13.0404 15.7624 13.026 15.7115 12.9987 15.6674C12.9714 15.6232 12.9323 15.5875 12.8859 15.5643C12.8394 15.5411 12.7875 15.5312 12.7357 15.5359C12.684 15.5406 12.6346 15.5595 12.5931 15.5907C12.1687 15.9014 11.8108 16.294 11.5408 16.7454C11.2707 17.1968 11.0939 17.6977 11.0208 18.2186C10.9741 18.4095 10.9442 18.604 10.9314 18.8001C10.2229 18.1034 9.831 18.1129 7.94449 17.168C7.89557 17.1438 7.84063 17.1344 7.78645 17.1411C7.73228 17.1477 7.68123 17.1701 7.63962 17.2054C7.598 17.2407 7.56763 17.2874 7.55225 17.3398C7.53688 17.3922 7.53717 17.4479 7.55309 17.5001C7.81823 18.4269 8.42669 19.2177 9.25453 19.7115C9.51397 19.9061 10.9437 20.3981 11.1724 20.6061C11.1907 20.6446 11.2174 20.6784 11.2506 20.7051C11.5784 22.2803 11.5799 23.9059 11.2551 25.4817L11.027 24.6844C11.0169 24.6491 11 24.6161 10.9772 24.5873C10.9544 24.5585 10.9261 24.5345 10.894 24.5167C10.862 24.4988 10.8267 24.4875 10.7902 24.4832C10.7537 24.479 10.7168 24.482 10.6814 24.4921C10.6461 24.5021 10.6131 24.519 10.5843 24.5419C10.5556 24.5647 10.5316 24.5929 10.5137 24.625C10.4958 24.6571 10.4845 24.6924 10.4803 24.7289C10.476 24.7653 10.479 24.8023 10.4891 24.8376C11.0085 26.8472 11.672 28.8167 12.4746 30.7309C10.5076 30.0466 8.86491 28.6561 7.86509 26.8292C7.83132 26.7676 7.77557 26.7209 7.70894 26.6986C7.64231 26.6762 7.5697 26.6797 7.50557 26.7085C7.0477 26.3627 6.51546 26.1285 5.95118 26.0247C5.12678 25.8247 4.26953 25.8003 3.43509 25.9531C3.38436 25.9615 3.33693 25.9837 3.298 26.0172C3.25907 26.0508 3.23016 26.0945 3.21444 26.1434C3.19872 26.1924 3.1968 26.2447 3.2089 26.2947C3.22099 26.3447 3.24664 26.3903 3.283 26.4267C3.83186 27.0025 4.54285 27.3977 5.3216 27.56C5.46101 27.6104 5.5993 27.6536 5.73647 27.6897C5.00221 27.9147 4.32562 28.2966 3.75359 28.8089C3.18155 29.3213 2.72775 29.9519 2.42362 30.6571C2.40551 30.6983 2.39765 30.7433 2.4007 30.7883C2.40374 30.8332 2.41761 30.8768 2.44111 30.9152C2.46461 30.9537 2.49705 30.9858 2.53568 31.009C2.5743 31.0322 2.61795 31.0458 2.66292 31.0485C3.83579 31.1306 5.01283 30.9654 6.1178 30.5637C7.07346 30.1676 7.87014 29.4647 8.38229 28.5659C9.53445 29.9382 11.0739 30.9309 12.7994 31.4141C14.1372 33.9253 15.97 36.1393 18.1872 37.9224C19.8219 39.361 21.5413 40.7003 23.3363 41.9331C23.5759 48.7126 23.475 55.4999 23.0338 62.2693C22.955 63.4309 22.6908 64.5723 22.251 65.6503C22.2426 65.6706 22.2367 65.6918 22.2337 65.7135C19.8789 66.6216 17.681 67.8931 15.7198 69.4815C15.3475 69.785 14.9345 70.0349 14.493 70.224C13.8981 70.2727 13.2992 70.226 12.7189 70.0859C8.81338 69.7421 5.82649 74.1855 2.57123 75.4475C0.898304 76.1369 0.055133 77.0024 -0.00469418 78.0944C-0.00881396 78.1684 0.0166104 78.241 0.0659918 78.2962C0.115373 78.3515 0.184671 78.3849 0.258657 78.389C0.332646 78.3932 0.405244 78.3677 0.460497 78.3184C0.51575 78.269 0.549136 78.1997 0.55332 78.1257C0.600846 77.2702 1.33051 76.5635 2.77866 75.9669C6.08314 74.6854 9.09238 70.3241 12.6334 70.6372C13.2737 70.7905 13.9348 70.8373 14.5903 70.7759C15.131 70.5744 15.6334 70.2823 16.0759 69.912C18.0012 68.3544 20.1593 67.1091 22.4713 66.2218C26.5457 64.7205 27.135 66.6216 29.2161 67.4882C32.7386 68.9543 36.2215 66.5466 38.5631 70.5137C39.6568 72.2805 39.8335 73.1282 41.8167 74.5478C42.8064 75.2562 43.1027 75.542 43.4812 77.1271C43.7116 78.0944 43.8983 78.4623 45.9375 78.9828C46.5046 79.1208 47.0342 79.3824 47.4885 79.7488C47.9428 80.1152 48.3105 80.5775 48.5654 81.1025C48.5811 81.1357 48.6031 81.1656 48.6303 81.1903C48.6574 81.215 48.6892 81.2341 48.7237 81.2465C48.7583 81.259 48.795 81.2645 48.8316 81.2627C48.8683 81.261 48.9043 81.2521 48.9375 81.2364C48.9708 81.2208 49.0006 81.1987 49.0253 81.1716C49.05 81.1444 49.0691 81.1127 49.0816 81.0781C49.094 81.0436 49.0995 81.0069 49.0978 80.9702C49.096 80.9335 49.0871 80.8975 49.0714 80.8643C48.7818 80.2647 48.3632 79.7365 47.8456 79.3176C47.3279 78.8987 46.7241 78.5993 46.0773 78.441C43.3677 77.75 44.5743 77.6107 43.4494 75.3658C42.9462 74.5036 42.1136 74.1525 41.4521 73.5581C40.1555 72.4555 39.9201 71.6414 39.0417 70.2235C36.8309 66.4773 33.7132 67.8807 30.6385 67.3126C31.4929 66.1491 32.4619 64.5075 33.1893 63.7521C33.5134 63.4397 33.7289 63.0317 33.8043 62.588C33.9341 61.6934 32.9237 61.0224 32.1566 60.546C34.6676 56.2709 34.5245 56.532 34.5374 56.4554C35.5514 56.1777 36.4836 55.6598 37.2553 54.9458C37.0701 56.6159 37.5524 58.2917 38.5972 59.6078C39.7186 60.7577 41.0314 61.7036 42.477 62.4035C47.5066 64.9908 52.8474 66.9218 58.3687 68.1491C55.2118 71.0823 52.0645 74.677 51.4142 79.8769C50.9367 83.5342 53.5506 84.7497 57.2392 84.7497C65.0279 84.7497 75.3663 80.0357 81.817 75.4754C81.8148 75.925 81.7134 76.3685 81.5201 76.7745C81.3268 77.1804 81.0464 77.5387 80.6988 77.8238C80.0188 78.3533 79.1634 78.8677 79.3261 79.7595C79.3701 80.0061 79.4845 80.2346 79.6555 80.4176C79.8266 80.6005 80.047 80.7301 80.29 80.7905C81.5824 80.9237 82.8758 80.5471 83.8947 79.741L84.1296 85.1221C84.1296 88.1247 88.9158 90.4764 95.0259 90.4764C101.136 90.4764 105.857 88.1241 105.922 85.1344C105.949 83.9094 105.945 84.0788 106.027 84.0408C106.073 84.0194 106.113 83.9859 106.141 83.9437C106.17 83.9015 106.186 83.8523 106.189 83.8014C106.841 71.2556 106.796 72.0982 106.782 72.0401ZM39.3582 34.8204C38.804 34.6156 38.3447 34.2137 38.0683 33.6915C38.3629 33.7512 38.6369 33.8867 38.8631 34.0847C39.0893 34.2826 39.26 34.5362 39.3582 34.8204ZM43.7312 32.3043C44.0663 32.4037 44.3792 32.5664 44.6532 32.7834C44.2512 32.8595 43.791 33.0244 43.588 33.0267C42.3686 33.0846 41.1509 32.88 40.0174 32.4267C40.5913 32.1409 41.2201 31.9824 41.8608 31.962C42.5016 31.9416 43.1392 32.0599 43.7301 32.3087L43.7312 32.3043ZM39.9363 30.0308C40.4404 29.4983 40.984 29.0044 41.5623 28.5536C40.9897 30.7247 40.4569 30.7812 39.1871 31.9766C39.2176 31.2643 39.4803 30.5815 39.9352 30.0325L39.9363 30.0308ZM37.4672 27.1793C37.7261 26.5087 38.1428 25.9105 38.6822 25.4353C38.6872 26.1113 38.6352 26.7865 38.5268 27.4538C38.4186 28.2543 38.078 29.0054 37.5472 29.6143C37.2802 28.8298 37.252 27.9837 37.4661 27.1832L37.4672 27.1793ZM44.8847 11.8859C44.4186 12.1463 43.9325 12.369 43.4309 12.5518C43.1681 12.6636 42.9065 12.7816 42.5984 12.9018C42.4609 12.9807 42.3103 13.0343 42.1539 13.0601C42.2225 12.9448 42.2845 12.8257 42.3395 12.7033C43.081 12.1703 43.9715 11.8842 44.8847 11.8859ZM42.089 10.7044C42.0985 10.9186 42.1209 11.2384 42.1276 11.3133C42.0954 11.6732 42.0101 12.0263 41.8743 12.3611C41.7626 12.4592 41.6602 12.5674 41.5684 12.6843C41.5059 12.3361 41.5204 11.9785 41.6107 11.6365C41.701 11.2945 41.865 10.9764 42.0912 10.7044H42.089ZM40.2025 17.2194C40.7937 17.1052 41.3993 17.0852 41.9967 17.1602C42.0907 17.168 42.5475 17.272 42.9165 17.3676C42.2856 17.7433 41.583 17.9827 40.8539 18.0704C40.1493 18.0565 39.4475 17.9783 38.7571 17.8367C39.2041 17.5575 39.6917 17.3493 40.2025 17.2194ZM31.6422 18.6307C31.5863 18.7951 31.404 19.3659 31.404 19.3659C31.2117 19.6761 30.9624 19.947 30.6693 20.1644C30.8118 19.5582 31.1545 19.0179 31.6422 18.6307ZM28.5574 18.6162C29.0192 19.2146 29.3977 19.8729 29.6824 20.5731C29.3382 20.3759 29.0525 20.0908 28.8545 19.747C28.6566 19.4031 28.5535 19.0129 28.5558 18.6162H28.5574ZM28.0553 21.0702C28.5141 21.209 28.9603 21.3867 29.3889 21.6014C29.6519 21.7434 29.8684 21.9583 30.0123 22.2203C29.6201 22.1903 29.2399 22.0711 28.9007 21.8718C28.5615 21.6724 28.2724 21.3983 28.0553 21.0702ZM28.3763 6.75361C28.2153 6.27018 28.1636 5.75706 28.2248 5.25122C28.4411 5.55315 28.7353 5.92833 28.8113 6.06923C29.195 6.63433 29.4067 7.29854 29.4207 7.98146C28.9939 7.64602 28.6387 7.22829 28.3763 6.75305V6.75361ZM23.2323 1.54976C23.3587 1.79296 23.5022 2.0269 23.6617 2.2498C23.8852 2.69768 24.0149 3.18645 24.043 3.68621C23.7516 3.41712 23.5268 3.08401 23.3862 2.71315C23.2456 2.34229 23.1931 1.94383 23.2328 1.54921L23.2323 1.54976ZM26.3684 1.92774C26.2225 2.30795 26.0542 2.68928 25.8652 3.06781C25.6321 3.54555 25.2235 3.91475 24.7246 4.09829C24.8398 3.38036 25.6371 2.52266 26.369 1.92718L26.3684 1.92774ZM23.3111 6.91911C23.1787 6.91911 23.0469 6.90028 22.9197 6.8632C23.476 6.6423 24.0853 6.5917 24.6704 6.71782C24.2427 6.90264 23.774 6.97204 23.3111 6.91911ZM31.6232 4.60095C31.3691 5.34506 30.9172 6.00593 30.3159 6.51262C30.3837 6.11876 30.5355 5.74413 30.7611 5.41424C30.9867 5.08435 31.2807 4.80696 31.6232 4.60095ZM15.5839 8.00103C15.82 7.60752 16.1271 7.26131 16.4897 6.98006C16.5344 6.95769 16.5456 6.9521 16.8095 6.82909C16.3907 7.56267 15.4385 8.85762 15.2876 8.66137C15.2842 8.61608 15.2814 8.57079 15.2775 8.5255C15.3501 8.33503 15.4537 8.15784 15.5839 8.00103ZM13.7785 4.93755C14.2834 6.00055 14.5956 7.14478 14.7005 8.31694C14.3084 7.85569 14.0226 7.31387 13.8633 6.72987C13.704 6.14587 13.675 5.53398 13.7785 4.93755ZM11.5693 18.3198C11.6629 17.6233 11.9722 16.9736 12.4539 16.4618C12.4084 17.0338 12.2765 17.5956 12.0625 18.128C11.8924 18.456 11.7027 18.7734 11.4944 19.0786C11.4828 18.8234 11.508 18.5678 11.5693 18.3198ZM9.56373 19.2429C9.05724 18.9476 8.64264 18.5175 8.36607 18.0005C9.98196 18.7453 10.441 18.7973 10.9084 19.8328C10.4567 19.6321 9.71414 19.3525 9.56373 19.2429ZM4.14015 26.4306C4.70298 26.3857 5.26937 26.4317 5.81755 26.567C6.34267 26.6477 6.83351 26.8777 7.23159 27.2296C6.63576 27.3141 6.02818 27.2428 5.46809 27.0227C4.98608 26.9292 4.53185 26.7267 4.14015 26.4306ZM5.92211 30.0403C5.0256 30.3675 4.07611 30.5252 3.12197 30.5055C3.48707 29.8272 4.01221 29.2483 4.65179 28.819C5.29137 28.3897 6.02607 28.123 6.79212 28.042C7.61963 27.9302 7.87963 28.066 7.90255 28.1538C7.99481 28.5279 6.8648 29.6808 5.92211 30.0403ZM80.0261 60.7602C80.2892 60.7534 80.5512 60.7231 80.8089 60.6696L83.6325 63.888C83.358 64.3579 83.2334 64.9003 83.2752 65.4429L83.505 70.6987L80.0261 60.7602ZM61.0441 38.4508C61.1325 37.2134 61.2644 35.9308 61.3746 34.2433C61.3684 34.0091 61.4199 33.7769 61.5247 33.5673C61.6294 33.3576 61.7841 33.177 61.9751 33.0412C62.4425 32.9747 62.2424 34.3099 62.1758 35.1782L61.4557 44.6566C61.2527 46.0986 60.7802 46.2658 60.3598 46.367C60.5549 45.7961 60.9854 39.2336 61.0413 38.4491L61.0441 38.4508ZM37.1217 51.884C37.1438 51.9399 37.1474 52.0014 37.1317 52.0595C36.9427 52.6662 35.4376 53.8761 34.6414 54.1417C34.5854 54.1591 34.4943 54.1702 34.3221 54.0651C33.8748 53.4305 34.2997 51.7727 34.8438 50.8742C34.928 50.9489 35.0329 50.9965 35.1446 51.0107C35.2563 51.0248 35.3698 51.0049 35.47 50.9536C35.4874 51.1169 35.5647 51.268 35.6869 51.3778C35.8092 51.4875 35.9677 51.5481 36.132 51.5479C36.2278 51.5409 36.3172 51.497 36.3814 51.4255C36.4557 51.3695 36.4205 51.3573 36.4557 51.5121C36.4716 51.5823 36.502 51.6484 36.5451 51.7061C36.5881 51.7637 36.6429 51.8116 36.7057 51.8467C36.7685 51.8818 36.838 51.9032 36.9097 51.9097C36.9814 51.9161 37.0536 51.9073 37.1217 51.884ZM57.9773 45.6323C58.7321 45.186 59.4346 44.6568 60.0718 44.0544C60.0148 44.6479 59.9544 45.2275 59.8906 45.7933C59.8997 45.995 59.8476 46.1947 59.7412 46.3663C59.6347 46.5378 59.4788 46.6731 59.2941 46.7545L56.7176 48.2736C50.9809 47.4724 52.1064 49.0827 57.9773 45.6323ZM88.7989 51.0592C88.9666 50.7187 88.838 50.8624 88.9213 46.9345C89.0409 44.6104 88.8835 42.2803 88.4522 39.9935C90.2482 41.9023 91.4011 42.4089 91.6762 44.958C92.1967 49.3818 95.5784 53.449 94.8822 57.9735C94.8766 58.0143 94.88 58.056 94.8923 58.0953C93.2289 59.066 92.8319 59.189 92.2426 60.021C91.2564 60.1282 90.2785 60.3015 89.3155 60.5399C89.8245 57.4746 89.5402 54.3301 88.4897 51.4059C88.6254 51.3244 88.7331 51.2035 88.7983 51.0592H88.7989ZM99.0987 66.626C100.802 66.8781 102.466 67.3479 104.05 68.0239C99.8524 70.4661 91.6706 70.734 86.7592 68.4203C90.1274 66.3252 95.4017 66.1245 99.0981 66.626H99.0987ZM96.965 59.9366C96.6831 60.0047 96.419 60.1322 96.1902 60.3105C95.9614 60.4887 95.7732 60.7137 95.6382 60.9704C95.4084 61.4574 95.6002 62.0797 95.5856 62.5438C95.5784 62.7921 95.504 62.8888 95.4794 62.8944C95.4548 62.9 95.3933 62.8647 95.3424 62.7619C95.0424 62.158 94.8922 61.4908 94.9046 60.8166C94.9046 60.7425 94.8752 60.6714 94.8227 60.619C94.7703 60.5665 94.6992 60.5371 94.6251 60.5371C94.5509 60.5371 94.4798 60.5665 94.4274 60.619C94.3749 60.6714 94.3455 60.7425 94.3455 60.8166C94.3455 60.8166 94.3511 62.4325 94.3544 62.5002C94.3897 63.3271 93.6801 63.2964 93.6963 62.3492C93.707 61.7342 93.731 61.1365 93.7685 60.5678C93.7747 60.4937 93.7512 60.4201 93.7032 60.3633C93.6552 60.3064 93.5865 60.271 93.5124 60.2648C93.4382 60.2586 93.3646 60.282 93.3078 60.3301C93.251 60.3781 93.2156 60.4467 93.2093 60.5209L93.0097 62.4543C92.9839 62.4135 92.9635 62.3695 92.9488 62.3235C92.6692 61.5581 92.4629 60.8748 92.7134 60.3106C93.0158 59.8848 93.4229 59.5442 93.8954 59.3215L95.8663 58.1714C96.8172 58.297 97.758 58.4889 98.6821 58.7456C98.5999 59.6615 97.9821 59.5944 96.9645 59.9366H96.965ZM74.1619 14.0033C74.3044 14.0032 74.4452 14.0349 74.5739 14.0959C74.7027 14.157 74.8162 14.2459 74.9064 14.3563C74.9965 14.4667 75.061 14.5957 75.0951 14.7341C75.1292 14.8724 75.132 15.0166 75.1035 15.1562C74.8664 16.1388 74.36 17.0359 73.6414 17.7467C74.0372 16.4641 72.7865 14.0033 74.1619 14.0033ZM68.3162 26.4295C68.3827 26.6962 68.7831 26.6296 68.7831 26.2958L68.3827 23.8916C68.3162 23.7579 68.2491 23.6908 68.1155 23.7579C65.5591 24.5849 62.1842 22.5944 61.3684 17.4996C61.4511 17.1021 61.5977 16.7207 61.8023 16.3701C62.4856 15.3726 63.7453 14.7129 64.4509 13.5924C64.6444 14.0816 65.3673 14.2398 66.083 13.2256C66.5001 14.3349 68.3196 14.4238 68.8597 11.7243C69.4184 12.3178 69.8742 13.0004 70.2083 13.7439C70.5004 14.2887 70.7133 14.8723 70.8407 15.4772C70.8407 16.4244 70.8194 17.5633 71.7616 17.6578C71.4194 18.6844 70.7071 20.2673 71.3025 21.1278C71.4132 21.2782 71.5593 21.3989 71.7277 21.4795C71.8962 21.56 72.0819 21.5978 72.2685 21.5895C72.455 21.5812 72.6366 21.5271 72.7973 21.4319C72.9579 21.3368 73.0927 21.2035 73.1896 21.0439C73.2867 21.1614 73.3996 21.2649 73.5251 21.3514C73.7639 22.0815 74.087 22.7812 74.4879 23.4364C74.5072 23.4677 74.5324 23.4949 74.5622 23.5164C74.592 23.5379 74.6257 23.5534 74.6615 23.5619C74.6972 23.5704 74.7343 23.5717 74.7706 23.5659C74.8068 23.56 74.8416 23.5471 74.8729 23.5278C74.9042 23.5086 74.9313 23.4833 74.9529 23.4535C74.9744 23.4238 74.9898 23.39 74.9983 23.3543C75.0068 23.3186 75.0082 23.2815 75.0023 23.2452C74.9965 23.2089 74.9836 23.1742 74.9643 23.1429C74.8212 22.9103 74.6898 22.6738 74.5679 22.4266C74.9671 22.3659 75.3659 22.315 75.7644 22.274C75.5463 25.5729 74.0926 28.4602 71.8566 29.7205C71.3843 29.9664 70.8678 30.1159 70.3372 30.1605C69.8066 30.205 69.2724 30.1436 68.7657 29.9799C68.43 29.8462 68.1266 29.6423 67.876 29.382C67.6253 29.1217 67.433 28.8109 67.312 28.4703C66.926 27.3972 66.8716 26.2328 67.156 25.1284C67.4512 25.0355 67.7494 24.9485 68.0506 24.8672L68.3162 26.4295ZM36.4675 47.0391C37.0478 46.7562 37.7114 46.6946 38.3339 46.8657C39.4264 47.166 40.4256 47.6189 40.827 48.471C41.0289 48.8987 41.1066 49.7408 40.7152 49.8688C40.1404 50.0606 39.5634 50.2753 38.9204 50.4699C38.8158 50.4615 38.7655 50.4319 38.7583 50.414C38.7348 50.3525 38.7929 50.1255 39.1228 49.818C39.4087 49.63 39.7169 49.4784 40.0403 49.3667C40.1098 49.3407 40.1661 49.2882 40.1968 49.2206C40.2276 49.1531 40.2302 49.0761 40.2042 49.0067C40.1781 48.9372 40.1256 48.8809 40.0581 48.8502C39.9905 48.8194 39.9136 48.8168 39.8441 48.8428C39.0636 49.0708 38.3781 49.5458 37.8905 50.1965C37.6701 50.6328 37.363 51.0196 36.988 51.3332C36.8863 50.6622 37.5561 49.5009 38.0196 48.9043C38.0608 48.8513 38.0816 48.7853 38.0781 48.7182C38.0746 48.6512 38.0471 48.5877 38.0007 48.5392C37.9542 48.4908 37.8918 48.4607 37.825 48.4544C37.7582 48.4482 37.6913 48.4661 37.6366 48.5051C37.138 48.8474 36.755 49.3328 36.5379 49.8974C36.4087 50.2661 36.2496 50.6236 36.0621 50.9664C36.0062 50.9155 36.0062 50.7579 36.0062 50.6869C36.0813 49.7711 36.3219 48.8765 36.7163 48.0466C36.7439 47.987 36.7497 47.9195 36.7325 47.8561C36.7154 47.7926 36.6764 47.7373 36.6225 47.6997C36.5686 47.6621 36.5031 47.6447 36.4376 47.6506C36.3722 47.6565 36.3109 47.6853 36.2645 47.7318C35.6866 48.3495 35.3493 49.154 35.314 49.9991C35.314 50.5247 35.1463 50.5666 35.134 50.2177C34.9673 49.2504 35.3431 47.6329 36.4675 47.0391ZM26.9857 60.56C27.1122 60.1839 27.3704 59.8662 27.7126 59.6654C27.2016 61.6676 26.8269 63.3993 26.5479 65.0414C26.3037 64.3532 26.1275 63.6427 26.0218 62.9201C26.2992 62.1162 26.621 61.3283 26.9857 60.56ZM40.269 7.26298C40.3924 7.11236 40.5428 6.98607 40.7124 6.89059C40.3932 7.44973 40.1259 7.85286 39.6434 7.99935C39.8237 7.73123 40.0335 7.48422 40.269 7.26298ZM38.4686 5.36193C38.9159 6.52157 39.1155 6.58587 39.1295 7.01081C39.0993 7.16066 39.0686 7.3133 39.044 7.46706C38.8038 7.1772 38.6282 6.83943 38.529 6.47631C38.4298 6.11319 38.4092 5.73308 38.4686 5.36137V5.36193ZM32.7884 63.3646C31.9771 64.2067 30.8952 66.0602 30.0447 67.1762C29.3058 66.9593 28.6143 66.605 28.0067 66.1317C29.5033 64.5547 31.2793 63.2688 33.2447 62.3392C33.2461 62.5327 33.2061 62.7244 33.1274 62.9012C33.0487 63.0781 32.9331 63.2361 32.7884 63.3646ZM32.9673 61.8522C30.9209 62.8224 29.0777 64.1731 27.5359 65.8321C27.3721 65.732 27.2043 65.6369 27.0327 65.5525C27.3234 63.7504 27.7305 61.8533 28.3075 59.6128C28.4045 59.6277 28.4996 59.6532 28.591 59.6889C30.2075 60.0332 31.7121 60.7769 32.9673 61.8522ZM30.3467 59.6413L32.5938 55.7833C32.7381 55.995 32.9291 56.1706 33.1521 56.2966C33.3751 56.4227 33.6241 56.4957 33.8798 56.5102L31.6746 60.2653C31.2462 60.0283 30.8026 59.8199 30.3467 59.6413ZM59.1464 84.109C55.0827 84.4198 51.4427 83.9675 51.9672 79.9485C52.4939 75.7315 54.6684 72.5607 57.8671 69.4077C60.917 66.5042 64.15 63.7993 67.5463 61.3098C67.5809 61.2844 67.6093 61.2514 67.6291 61.2133C67.649 61.1753 67.6598 61.1331 67.6607 61.0902C67.6616 61.0472 67.6526 61.0047 67.6344 60.9658C67.6162 60.9269 67.5893 60.8927 67.5558 60.8658C66.8823 60.3212 66.145 59.8606 65.3601 59.4943C65.2929 59.4655 65.2172 59.4642 65.149 59.4906C65.0809 59.517 65.0258 59.569 64.9956 59.6355C64.9653 59.702 64.9623 59.7777 64.9872 59.8464C65.012 59.9151 65.0628 59.9714 65.1286 60.0031C65.7615 60.297 66.3613 60.6574 66.9178 61.0783C65.629 62.0288 64.3531 63.0213 63.0738 64.0674C63.05 64.0316 63.0182 64.0018 62.9809 63.9803C62.9437 63.9587 62.902 63.9461 62.8591 63.9433C55.3256 63.4613 48.0075 61.234 41.4829 57.4373C41.4511 57.4162 41.4154 57.402 41.3778 57.3953C41.3403 57.3886 41.3018 57.3896 41.2647 57.3984C41.2276 57.4071 41.1927 57.4233 41.1621 57.446C41.1315 57.4688 41.1059 57.4975 41.0868 57.5305C41.0677 57.5635 41.0556 57.6 41.0511 57.6378C41.0467 57.6757 41.05 57.714 41.0609 57.7506C41.0718 57.7871 41.0901 57.821 41.1146 57.8502C41.1391 57.8794 41.1693 57.9032 41.2033 57.9203C47.7282 61.7168 55.0385 63.9627 62.5695 64.4845C61.2443 65.5827 59.9057 66.7501 58.8792 67.6839C53.2665 66.4737 47.8379 64.5289 42.7337 61.8997C41.3536 61.2338 40.0993 60.3341 39.0261 59.2405C38.5142 58.5927 38.1471 57.8428 37.9493 57.0412C37.7516 56.2396 37.7279 55.405 37.8799 54.5935C37.8914 54.5338 37.8831 54.472 37.8564 54.4174C39.0127 53.4258 39.9539 52.208 40.6218 50.8389C41.5827 50.3095 42.5911 49.8715 43.6339 49.5306C46.1276 49.5008 48.6091 49.1778 51.0273 48.5683C53.5723 48.4493 56.1221 48.652 58.6164 49.1716C60.0338 49.672 61.3517 50.5733 62.7232 51.1884C69.9707 54.5337 81.6387 56.4219 88.0206 51.7548C89.0188 54.6271 89.2603 57.7081 88.7217 60.7009C86.5081 61.3361 84.8296 62.2894 83.949 63.4088L81.3887 60.489C82.9621 59.818 82.2112 58.3347 79.8679 58.3347C76.9514 58.3347 76.692 60.4951 79.425 60.7434L82.5165 69.5838C75.3232 76.1771 67.1655 80.0541 58.2675 81.1059C58.1948 81.1156 58.1288 81.1536 58.0838 81.2115C58.0389 81.2695 58.0185 81.3428 58.027 81.4157C58.0356 81.4885 58.0725 81.5551 58.1297 81.601C58.1869 81.6469 58.2599 81.6685 58.3329 81.6611C67.279 80.6038 75.4793 76.734 82.7172 70.1575C83.5397 72.5092 83.4765 72.3896 83.576 72.4617L83.618 73.4189C76.81 78.9107 66.3084 83.5012 59.1464 84.109ZM81.4239 80.2392C80.7558 80.351 79.9864 80.3315 79.8757 79.6639C79.7756 79.1137 80.4689 78.7094 81.0421 78.266C81.5059 77.8847 81.8689 77.3952 82.0992 76.8407C82.3295 76.2861 82.42 75.6834 82.3627 75.0857C82.8033 74.7648 83.232 74.4399 83.6487 74.1111L83.8645 79.0572C83.1615 79.6473 82.3228 80.0535 81.4239 80.2392ZM105.362 85.1221C105.362 87.7662 100.725 89.9172 95.0248 89.9172C89.3245 89.9172 84.6876 87.7662 84.6876 85.1087L83.8975 66.9962C87.4626 71.7656 102.585 71.7684 106.151 66.9962L105.959 71.3893C104.873 70.6507 104.921 70.6518 104.767 70.6954L102.764 71.2294C102.714 71.2426 102.668 71.2695 102.633 71.3071C102.597 71.3446 102.572 71.3913 102.562 71.442C102.551 71.4927 102.555 71.5453 102.572 71.5941C102.59 71.6428 102.62 71.6857 102.661 71.718L104.226 72.9694L103.907 84.0821L102.499 84.8778C102.446 84.9082 102.404 84.9555 102.38 85.0124C102.356 85.0693 102.351 85.1325 102.367 85.1921C102.382 85.2518 102.417 85.3046 102.466 85.3423C102.515 85.38 102.575 85.4005 102.637 85.4006C103.2 85.2544 103.752 85.0675 104.288 84.8414L105.397 84.3298L105.362 85.1221Z" fill="black"/>
<path d="M66.679 20.3076C66.9082 19.9637 66.3155 19.5455 65.5568 20.0538C65.4854 20.1012 65.4079 20.1388 65.3264 20.1656C65.3404 19.8771 65.4092 18.6604 65.4567 17.8329C65.4588 17.7962 65.4537 17.7595 65.4416 17.7248C65.4295 17.6901 65.4107 17.6581 65.3862 17.6307C65.3618 17.6033 65.3322 17.5809 65.2991 17.565C65.266 17.549 65.23 17.5397 65.1934 17.5377C65.12 17.5358 65.0486 17.562 64.9939 17.611C64.9391 17.6599 64.9051 17.7279 64.8987 17.801C64.8579 18.5061 64.7656 20.1527 64.7645 20.2092C64.7544 20.7957 65.3203 20.8841 65.8666 20.5201C65.9854 20.4223 66.1375 20.3744 66.2909 20.3865C66.3216 20.4068 66.3559 20.4209 66.392 20.428C66.4281 20.435 66.4653 20.4349 66.5013 20.4276C66.5374 20.4202 66.5716 20.4059 66.6021 20.3853C66.6326 20.3647 66.6587 20.3383 66.679 20.3076Z" fill="black"/>
<path d="M68.6226 19.6087C68.5863 19.6035 68.5492 19.6055 68.5136 19.6146C68.478 19.6237 68.4445 19.6398 68.4151 19.6619C68.3857 19.6839 68.361 19.7116 68.3423 19.7432C68.3236 19.7749 68.3113 19.8099 68.3062 19.8463C68.2512 20.2673 68.0776 20.6639 67.8057 20.9898C67.5337 21.3158 67.1746 21.5576 66.7702 21.687C66.7009 21.709 66.6429 21.7572 66.6086 21.8213C66.5742 21.8854 66.5662 21.9604 66.5862 22.0303C66.6062 22.1002 66.6527 22.1596 66.7158 22.1958C66.7788 22.2321 66.8535 22.2423 66.924 22.2243C67.4316 22.0643 67.8832 21.7632 68.226 21.356C68.5688 20.9489 68.7886 20.4526 68.8597 19.9252C68.8649 19.8888 68.8629 19.8518 68.8539 19.8162C68.8448 19.7806 68.8288 19.7472 68.8067 19.7178C68.7847 19.6884 68.7571 19.6637 68.7255 19.6449C68.694 19.6262 68.659 19.6139 68.6226 19.6087Z" fill="black"/>
<path d="M66.4464 15.8916C66.9971 15.6591 67.608 15.6101 68.1887 15.7518C68.2611 15.7679 68.337 15.7545 68.3996 15.7147C68.4622 15.6748 68.5064 15.6118 68.5225 15.5393C68.5386 15.4669 68.5252 15.391 68.4854 15.3284C68.4455 15.2658 68.3824 15.2216 68.31 15.2055C67.6521 15.0366 66.9569 15.0897 66.3323 15.3565C66.2737 15.3825 66.2258 15.4279 66.1967 15.485C66.1676 15.5422 66.159 15.6076 66.1723 15.6703C66.1857 15.733 66.2202 15.7892 66.2701 15.8295C66.32 15.8698 66.3823 15.8917 66.4464 15.8916Z" fill="black"/>
<path d="M63.6072 16.6906C63.644 16.6961 63.6816 16.6942 63.7177 16.6849C63.7538 16.6757 63.7877 16.6593 63.8174 16.6368C63.8471 16.6143 63.872 16.586 63.8906 16.5537C63.9092 16.5214 63.9212 16.4857 63.9258 16.4488C63.9304 16.4118 63.9276 16.3743 63.9175 16.3384C63.9074 16.3025 63.8903 16.269 63.867 16.2399C63.8438 16.2107 63.815 16.1865 63.7823 16.1687C63.7495 16.1508 63.7136 16.1397 63.6765 16.1359C63.3519 16.1092 63.0265 16.1775 62.74 16.3326C62.4535 16.4877 62.2185 16.7228 62.0634 17.0093C62.0451 17.0412 62.0332 17.0763 62.0284 17.1128C62.0236 17.1493 62.0261 17.1863 62.0356 17.2218C62.0452 17.2573 62.0617 17.2906 62.0841 17.3198C62.1065 17.3489 62.1344 17.3734 62.1663 17.3918C62.1982 17.4101 62.2333 17.422 62.2698 17.4268C62.3063 17.4315 62.3433 17.4291 62.3788 17.4195C62.4143 17.41 62.4476 17.3935 62.4768 17.3711C62.5059 17.3487 62.5304 17.3207 62.5487 17.2889C62.649 17.098 62.8022 16.9401 62.9899 16.834C63.1776 16.7279 63.3919 16.6781 63.6072 16.6906Z" fill="black"/>
<path d="M63.4316 17.2648C62.9535 17.3889 63.1772 18.3831 63.4741 18.5972C63.771 18.8114 64.017 18.4446 64.0254 18.1303C64.0338 17.8161 63.856 17.1563 63.4316 17.2648Z" fill="black"/>
<path d="M67.4266 16.2668C66.9485 16.3909 67.1722 17.3851 67.4691 17.5992C67.766 17.8134 68.012 17.4466 68.0204 17.1323C68.0287 16.8181 67.8481 16.1566 67.4266 16.2668Z" fill="black"/>
</svg>
